<?xml version="1.0" encoding="UTF-8"?>
<svg version="1.1" xmlns="http://www.w3.org/2000/svg" width="238" height="212">
<path d="M0 0 C5.49612244 0.23631976 9.49962734 2.0336862 14.125 4.8125 C14.79805176 5.2034082 15.47110352 5.59431641 16.16455078 5.99707031 C17.64284481 6.85582202 19.11848476 7.71915469 20.59179688 8.58642578 C24.09174086 10.64083329 27.61094625 12.6610688 31.13232422 14.6784668 C32.91215809 15.69829861 34.68995758 16.72169223 36.46533203 17.74926758 C38.13401642 18.7093657 39.80877454 19.6589929 41.48974609 20.59741211 C43.21464849 21.56119 44.92542565 22.55055334 46.62353516 23.56079102 C51.74308528 26.53760296 51.74308528 26.53760296 57.4765625 26.30859375 C59.03503906 25.38240234 59.03503906 25.38240234 60.625 24.4375 C61.20419189 24.10758057 61.78338379 23.77766113 62.38012695 23.43774414 C64.28346045 22.33525436 66.14066551 21.1750125 68 20 C69.35511122 19.1660854 70.71058734 18.33276351 72.06640625 17.5 C74.79973809 15.80796825 77.51654385 14.09235462 80.2265625 12.36328125 C84.27524155 9.79843798 88.43190079 7.48051618 92.67578125 5.25390625 C94.7824827 4.11734967 96.74609861 2.8674689 98.75 1.5625 C102.70407331 -0.33849678 104.81876403 -0.17074607 109 1 C110.48245513 3.96491026 110.15191001 6.64782097 110.17700195 9.95654297 C110.18357315 10.67217407 110.19014435 11.38780518 110.19691467 12.12512207 C110.21665389 14.49747823 110.22831082 16.86977112 110.23828125 19.2421875 C110.24235678 20.05177036 110.2464323 20.86135323 110.25063133 21.6954689 C110.27149349 25.97943111 110.28579526 30.26336125 110.29516602 34.54736328 C110.3062384 38.97509953 110.34064699 43.40233431 110.38033772 47.82989311 C110.40646315 51.2322382 110.41485413 54.63446299 110.41844749 58.03689957 C110.42332306 59.66920488 110.43496466 61.30150448 110.45348549 62.93371201 C110.47779441 65.21777033 110.47692794 67.50052031 110.4699707 69.78466797 C110.47583694 71.08435516 110.48170319 72.38404236 110.48774719 73.72311401 C109.91669846 77.55965397 109.02023349 78.66240996 106 81 C103.625 82.45703125 103.625 82.45703125 101 83.8125 C100.04351562 84.32296875 99.08703125 84.8334375 98.1015625 85.359375 C95.95151773 86.49667828 93.80040105 87.63195656 91.6484375 88.765625 C90.02808594 89.65507812 90.02808594 89.65507812 88.375 90.5625 C87.37210937 91.10003906 86.36921875 91.63757813 85.3359375 92.19140625 C82.77054697 93.81926569 82.77054697 93.81926569 82.1640625 96.71484375 C82.08285156 97.84599609 82.08285156 97.84599609 82 99 C84.22187927 100.34695793 86.45117463 101.67741796 88.6875 103 C89.62625977 103.57234375 89.62625977 103.57234375 90.58398438 104.15625 C94.17425068 106.26153705 96.81052662 107.66734974 101 107 C102.40911523 106.12769057 103.81146027 105.23956594 105.15234375 104.265625 C110.16330788 100.83316754 115.75650809 98.18492314 121.12109375 95.3515625 C122.60802734 94.55878906 122.60802734 94.55878906 124.125 93.75 C125.03507813 93.27046875 125.94515625 92.7909375 126.8828125 92.296875 C129.13273821 91.17545125 129.13273821 91.17545125 130 89 C130.11869276 86.9305936 130.17910359 84.85771926 130.2109375 82.78515625 C130.23929688 81.54185547 130.26765625 80.29855469 130.296875 79.01757812 C130.34887838 76.38490701 130.39317334 73.75207212 130.4296875 71.11914062 C130.460625 69.87455078 130.4915625 68.62996094 130.5234375 67.34765625 C130.54325684 66.20304932 130.56307617 65.05844238 130.58349609 63.87915039 C131 61 131 61 132.3605957 59.21508789 C134.7598519 57.43681565 137.24143125 55.89500291 139.8125 54.375 C140.82957031 53.76398438 141.84664062 53.15296875 142.89453125 52.5234375 C146.0112807 50.99446607 148.56800197 50.3796231 152 50 C154.13081719 53.19622579 154.27284649 54.145162 154.36987305 57.83520508 C154.39877121 58.81664993 154.42766937 59.79809479 154.45744324 60.8092804 C154.47535416 61.86866318 154.49326508 62.92804596 154.51171875 64.01953125 C154.53023392 65.11085861 154.54874908 66.20218597 154.56782532 67.32658386 C154.59988036 69.63732215 154.62552082 71.94815693 154.64526367 74.2590332 C154.67336116 76.62295733 154.72113283 78.98673155 154.78881836 81.34985352 C154.88626558 84.76145922 154.92429415 88.1692149 154.94921875 91.58203125 C154.98939621 92.63534134 155.02957367 93.68865143 155.07096863 94.77388 C155.02914881 101.94876815 155.02914881 101.94876815 152.09848022 104.94232178 C149.79591189 106.49918464 147.49461526 107.77913215 145 109 C143.70497559 109.78818115 143.70497559 109.78818115 142.38378906 110.59228516 C141.33529785 111.18468994 141.33529785 111.18468994 140.265625 111.7890625 C139.45399902 112.25006348 138.64237305 112.71106445 137.80615234 113.18603516 C136.96262207 113.66089355 136.1190918 114.13575195 135.25 114.625 C133.41402925 115.66660807 131.57809283 116.70827664 129.7421875 117.75 C128.80342773 118.28109375 127.86466797 118.8121875 126.89746094 119.359375 C122.05051664 122.10385307 117.21262234 124.86413473 112.375 127.625 C111.03356934 128.38804443 111.03356934 128.38804443 109.66503906 129.16650391 C108.41932129 129.87685791 108.41932129 129.87685791 107.1484375 130.6015625 C106.41802246 131.01744629 105.68760742 131.43333008 104.93505859 131.86181641 C103.25473311 132.85016834 101.62203575 133.91864283 100 135 C94.88812528 134.81343523 90.57055358 131.73324176 86.25 129.25 C85.10917969 128.60417969 85.10917969 128.60417969 83.9453125 127.9453125 C82.40204642 127.07166696 80.86038872 126.19517445 79.3203125 125.31591797 C77.02059044 124.01167745 74.70744922 122.73449894 72.390625 121.4609375 C68.34733204 119.21799435 64.40119028 116.85602014 60.5 114.375 C59.571875 113.80265625 59.571875 113.80265625 58.625 113.21875 C54.11734694 110.35204082 54.11734694 110.35204082 53 107 C52.64161548 103.21436873 52.58403582 99.4252864 52.5 95.625 C52.44585937 94.5834375 52.39171875 93.541875 52.3359375 92.46875 C52.20221839 84.99958253 52.20221839 84.99958253 54.38500977 82.26464844 C56.19709213 80.93381089 57.96461313 79.94984721 60 79 C60.99902344 78.46375 61.99804688 77.9275 63.02734375 77.375 C63.98769531 76.92125 64.94804688 76.4675 65.9375 76 C70.84781779 73.61235798 75.43598963 70.98619704 80 68 C84.75862069 65 84.75862069 65 87 65 C86.835 64.19046875 86.67 63.3809375 86.5 62.546875 C85.91577268 58.40251243 85.92837931 54.42548618 86 50.25 C86.33384805 44.96919114 86.33384805 44.96919114 85 40 C79.13072316 40.44624656 75.40919243 42.14936055 70.5 45.3125 C69.24002138 46.10096085 67.97960644 46.8887249 66.71875 47.67578125 C66.10459229 48.06080811 65.49043457 48.44583496 64.85766602 48.8425293 C56.59769856 53.98913275 56.59769856 53.98913275 52.5625 54.0625 C48.96789934 52.99042612 46.53390715 51.66628829 43.4453125 49.61328125 C40.28442368 47.52790252 37.06756532 45.55924287 33.8125 43.625 C32.92099243 43.06993774 32.92099243 43.06993774 32.01147461 42.50366211 C28.15062964 40.22719753 26.27224104 39.89775 22 41 C21.98541748 42.31718018 21.97083496 43.63436035 21.95581055 44.99145508 C21.89789287 49.87259238 21.82065964 54.75326518 21.73754883 59.6340332 C21.70426872 61.74756336 21.67624647 63.86118306 21.65356445 65.97485352 C21.62007528 69.01096806 21.56776236 72.04625975 21.51171875 75.08203125 C21.50213387 76.5024749 21.50213387 76.5024749 21.49235535 77.95161438 C21.47256119 78.83230087 21.45276703 79.71298737 21.43237305 80.62036133 C21.42126999 81.39535477 21.41016693 82.17034821 21.39872742 82.96882629 C20.89546332 85.53252461 20.08155599 86.45586876 18 88 C13.0329474 87.84565656 9.45970751 85.88724481 5.25 83.375 C4.12078125 82.72273438 2.9915625 82.07046875 1.828125 81.3984375 C-1.73285878 78.37848717 -2.02116055 76.52674016 -3 72 C-3.17225749 69.17030288 -3.25757525 66.44638665 -3.23046875 63.62109375 C-3.23046371 62.82346115 -3.23045868 62.02582855 -3.23045349 61.20402527 C-3.22696293 58.61501827 -3.20808727 56.02642334 -3.1875 53.4375 C-3.17928636 51.64827582 -3.17131312 49.85905052 -3.16357422 48.06982422 C-3.10102922 36.91948189 -2.93743168 25.77115535 -2.625 14.625 C-2.5943042 13.36743896 -2.5636084 12.10987793 -2.53198242 10.81420898 C-2.49306885 9.67153564 -2.45415527 8.5288623 -2.4140625 7.3515625 C-2.3826416 6.35979004 -2.3512207 5.36801758 -2.31884766 4.34619141 C-2 2 -2 2 0 0 Z " fill="#0681FB" transform="translate(43,42)"/>
<path d="M0 0 C3.11087238 3.11087238 2.8124505 6.80736122 3 11 C3.07541016 12.51013672 3.07541016 12.51013672 3.15234375 14.05078125 C3.08425801 21.86118813 3.08425801 21.86118813 0.13671875 24.95703125 C-2.17705266 26.49306437 -4.52020746 27.75391457 -7 29 C-8.09496524 29.77549877 -9.18028187 30.56503066 -10.25 31.375 C-13.22691556 33.13408647 -14.62604311 33.82069222 -18 33 C-21.11430762 29.88569238 -21.19799635 26.82573924 -21.25 22.625 C-21.18688461 20.74921059 -21.10485347 18.87391974 -21 17 C-20.938125 15.700625 -20.87625 14.40125 -20.8125 13.0625 C-19.73762959 9.0110654 -18.5361087 8.23712999 -15 6 C-13.82244141 5.22076172 -13.82244141 5.22076172 -12.62109375 4.42578125 C-4.74577983 -0.60925552 -4.74577983 -0.60925552 0 0 Z " fill="#0D82F7" transform="translate(195,42)"/>
<path d="M0 0 C4.58537549 0.25474308 7.58661647 0.85968715 11 4 C7.91190305 5.76462683 6.76687864 6 3 6 C3.33 4.68 3.66 3.36 4 2 C2.68 2.33 1.36 2.66 0 3 C0 27.42 0 51.84 0 77 C1.32 77.66 2.64 78.32 4 79 C4 79.66 4 80.32 4 81 C1.625 80.4375 1.625 80.4375 -1 79 C-2.92813345 73.85762837 -3.28302986 69.09950497 -3.23046875 63.62109375 C-3.23046371 62.82346115 -3.23045868 62.02582855 -3.23045349 61.20402527 C-3.22696293 58.61501827 -3.20808727 56.02642334 -3.1875 53.4375 C-3.17928636 51.64827582 -3.17131312 49.85905052 -3.16357422 48.06982422 C-3.10102922 36.91948189 -2.93743168 25.77115535 -2.625 14.625 C-2.5943042 13.36743896 -2.5636084 12.10987793 -2.53198242 10.81420898 C-2.49306885 9.67153564 -2.45415527 8.5288623 -2.4140625 7.3515625 C-2.3826416 6.35979004 -2.3512207 5.36801758 -2.31884766 4.34619141 C-2 2 -2 2 0 0 Z " fill="#5CA1EB" transform="translate(43,42)"/>
<path d="M0 0 C2.13081719 3.19622579 2.27284649 4.145162 2.36987305 7.83520508 C2.39877121 8.81664993 2.42766937 9.79809479 2.45744324 10.8092804 C2.47535416 11.86866318 2.49326508 12.92804596 2.51171875 14.01953125 C2.53023392 15.11085861 2.54874908 16.20218597 2.56782532 17.32658386 C2.59988036 19.63732215 2.62552082 21.94815693 2.64526367 24.2590332 C2.67336116 26.62295733 2.72113283 28.98673155 2.78881836 31.34985352 C2.88626558 34.76145922 2.92429415 38.1692149 2.94921875 41.58203125 C2.98939621 42.63534134 3.02957367 43.68865143 3.07096863 44.77388 C3.02904933 51.96583572 3.02904933 51.96583572 0.03530884 54.97445679 C-2.25153392 56.51288354 -4.52972752 57.78368293 -7 59 C-8.4540625 59.928125 -8.4540625 59.928125 -9.9375 60.875 C-12 62 -12 62 -14 62 C-14 61.34 -14 60.68 -14 60 C-10.63958702 57.11964602 -7.17522305 55.39174102 -3 54 C-2.67 53.01 -2.34 52.02 -2 51 C-1.34 51 -0.68 51 0 51 C0 35.16 0 19.32 0 3 C-1.65 3 -3.3 3 -5 3 C-5 3.66 -5 4.32 -5 5 C-6.98 5 -8.96 5 -11 5 C-9.04754573 1.09509146 -4.11653518 0 0 0 Z " fill="#4B97E6" transform="translate(195,92)"/>
<path d="M0 0 C1.134375 0.020625 2.26875 0.04125 3.4375 0.0625 C2.798125 0.371875 2.15875 0.68125 1.5 1 C-0.49860821 1.8970163 -0.49860821 1.8970163 -1.5625 3.0625 C-1.66893405 4.42769371 -1.70866942 5.79819278 -1.72021484 7.16748047 C-1.73047699 8.03863495 -1.74073914 8.90978943 -1.75131226 9.80734253 C-1.75861359 10.75521637 -1.76591492 11.70309021 -1.7734375 12.6796875 C-1.80150508 14.667977 -1.83016954 16.65625814 -1.859375 18.64453125 C-1.90067663 21.79378029 -1.93754491 24.94287324 -1.96386719 28.09228516 C-1.9914121 31.12175105 -2.03728503 34.15049706 -2.0859375 37.1796875 C-2.08919037 38.12351288 -2.09244324 39.06733826 -2.09579468 40.0397644 C-2.11236115 40.91722321 -2.12892761 41.79468201 -2.14599609 42.69873047 C-2.15408295 43.4707077 -2.1621698 44.24268494 -2.17050171 45.03805542 C-2.66781332 47.60638242 -3.46922284 48.52611769 -5.5625 50.0625 C-10.0977017 49.87353326 -11.26731395 49.35768605 -14.5625 46.0625 C-11.2625 46.3925 -7.9625 46.7225 -4.5625 47.0625 C-4.57035522 44.98014038 -4.57035522 44.98014038 -4.57836914 42.85571289 C-4.59641346 37.72518555 -4.60792992 32.59466103 -4.61743164 27.46411133 C-4.62247317 25.23982268 -4.62930623 23.01553737 -4.63793945 20.79125977 C-4.65001298 17.60171691 -4.65572996 14.41221771 -4.66015625 11.22265625 C-4.66531754 10.22162369 -4.67047882 9.22059113 -4.67579651 8.18922424 C-4.67587204 7.26834518 -4.67594757 6.34746613 -4.67602539 5.39868164 C-4.678246 4.58371719 -4.68046661 3.76875275 -4.68275452 2.92909241 C-4.46133302 -0.5078154 -3.55794927 0.06242016 0 0 Z " fill="#4996F1" transform="translate(66.5625,79.9375)"/>
<path d="M0 0 C0.66 0.33 1.32 0.66 2 1 C1 4 1 4 -0.7421875 5.0625 C-1.44601563 5.371875 -2.14984375 5.68125 -2.875 6 C-5.89041627 7.32254278 -5.89041627 7.32254278 -8.33251953 9.4609375 C-10.34986955 11.32292498 -12.07338217 11.89189892 -14.6875 12.6875 C-15.89986328 13.06455078 -15.89986328 13.06455078 -17.13671875 13.44921875 C-17.75160156 13.63097656 -18.36648437 13.81273438 -19 14 C-18.86089513 17.58362776 -18.71254587 21.16681498 -18.5625 24.75 C-18.52318359 25.76578125 -18.48386719 26.7815625 -18.44335938 27.828125 C-18.40146484 28.8078125 -18.35957031 29.7875 -18.31640625 30.796875 C-18.27974854 31.69760742 -18.24309082 32.59833984 -18.20532227 33.52636719 C-18.01693593 35.79596339 -17.62633499 37.81562887 -17 40 C-17.99 39.67 -18.98 39.34 -20 39 C-21.56914783 34.29255652 -21.39094122 29.5568806 -21.5 24.625 C-21.55414063 23.5834375 -21.60828125 22.541875 -21.6640625 21.46875 C-21.79768054 14.00522796 -21.79768054 14.00522796 -19.62817383 11.27124023 C-17.81256241 9.93533801 -16.0404975 8.95315756 -14 8 C-12.39705078 7.14341797 -12.39705078 7.14341797 -10.76171875 6.26953125 C-9.74722656 5.78871094 -8.73273438 5.30789062 -7.6875 4.8125 C-3.51495652 2.87233561 -3.51495652 2.87233561 0 0 Z " fill="#4494E9" transform="translate(117,113)"/>
<path d="M0 0 C0.33 1.32 0.66 2.64 1 4 C0.01 3.67 -0.98 3.34 -2 3 C-2.33 12.24 -2.66 21.48 -3 31 C-3.66 31 -4.32 31 -5 31 C-5.07421454 27.06739056 -5.12863136 23.13505278 -5.16479492 19.2019043 C-5.18728333 17.20672299 -5.22540198 15.21173787 -5.26367188 13.21679688 C-5.27333984 11.96318359 -5.28300781 10.70957031 -5.29296875 9.41796875 C-5.3086792 8.26063232 -5.32438965 7.1032959 -5.34057617 5.91088867 C-5 3 -5 3 -3.60668945 1.09887695 C-2 0 -2 0 0 0 Z " fill="#4495EE" transform="translate(179,100)"/>
<path d="M0 0 C0.8971875 0.5259375 0.8971875 0.5259375 1.8125 1.0625 C1.8125 1.7225 1.8125 2.3825 1.8125 3.0625 C0.42768672 3.93441947 -0.97095246 4.78440384 -2.375 5.625 C-3.15230469 6.10066406 -3.92960938 6.57632813 -4.73046875 7.06640625 C-7.74667359 8.289192 -9.11964011 8.04578843 -12.1875 7.0625 C-14.63717679 5.88267501 -16.85838852 4.47823443 -19.1875 3.0625 C-17.85416667 2.72916667 -16.52083333 2.39583333 -15.1875 2.0625 C-14.506875 1.815 -13.82625 1.5675 -13.125 1.3125 C-12.1659375 1.18875 -12.1659375 1.18875 -11.1875 1.0625 C-9.625 2.5 -9.625 2.5 -8.1875 4.0625 C-7.1975 4.0625 -6.2075 4.0625 -5.1875 4.0625 C-5.1875 2.7425 -5.1875 1.4225 -5.1875 0.0625 C-2.1875 -0.9375 -2.1875 -0.9375 0 0 Z " fill="#3A92ED" transform="translate(150.1875,168.9375)"/>
<path d="M0 0 C3.375 -0.1875 3.375 -0.1875 7 0 C9.32891212 3.49336818 9.23551143 4.86007865 9.1953125 8.98046875 C9.18564453 10.72553711 9.18564453 10.72553711 9.17578125 12.50585938 C9.15902344 13.72080078 9.14226562 14.93574219 9.125 16.1875 C9.11597656 17.41404297 9.10695312 18.64058594 9.09765625 19.90429688 C9.07406017 22.93639295 9.04113841 25.96809938 9 29 C8.01 28.67 7.02 28.34 6 28 C6.66 28 7.32 28 8 28 C7.835 27.19046875 7.67 26.3809375 7.5 25.546875 C6.91577268 21.40251243 6.92837931 17.42548618 7 13.25 C7.33384805 7.96919114 7.33384805 7.96919114 6 3 C3.36 3.33 0.72 3.66 -2 4 C-2 3.34 -2 2.68 -2 2 C-1.34 2 -0.68 2 0 2 C0 1.34 0 0.68 0 0 Z " fill="#59A0E6" transform="translate(122,79)"/>
<path d="M0 0 C0.99 0.33 1.98 0.66 3 1 C2.99476318 1.64549805 2.98952637 2.29099609 2.98413086 2.95605469 C2.96331343 5.88735985 2.95032466 8.81864943 2.9375 11.75 C2.92912109 12.76578125 2.92074219 13.7815625 2.91210938 14.828125 C2.90888672 15.8078125 2.90566406 16.7875 2.90234375 17.796875 C2.89448853 19.14797363 2.89448853 19.14797363 2.88647461 20.52636719 C2.99237688 22.83389804 3.34867187 24.79134405 4 27 C3.01 26.67 2.02 26.34 1 26 C-0.01973129 22.94080612 -0.11533602 20.87581975 -0.09765625 17.67578125 C-0.09443359 16.64775391 -0.09121094 15.61972656 -0.08789062 14.56054688 C-0.07951172 13.48869141 -0.07113281 12.41683594 -0.0625 11.3125 C-0.05798828 10.22904297 -0.05347656 9.14558594 -0.04882812 8.02929688 C-0.03703743 5.35280915 -0.02058063 2.67643223 0 0 Z " fill="#68ABE1" transform="translate(96,126)"/>
<path d="M0 0 C3.09158737 3.09158737 2.86840347 6.81881922 3 11 C2.79798573 15.01623603 2.43957564 19.00324305 2 23 C1.67 23 1.34 23 1 23 C1 16.4 1 9.8 1 3 C-2.63 3.33 -6.26 3.66 -10 4 C-6.38605541 0.38605541 -5.00366414 -0.37527481 0 0 Z " fill="#93C2F1" transform="translate(195,42)"/>
<path d="M0 0 C0.721875 0.144375 1.44375 0.28875 2.1875 0.4375 C3.5796875 0.7159375 3.5796875 0.7159375 5 1 C6.66666667 1.33333333 8.33333333 1.66666667 10 2 C10 2.66 10 3.32 10 4 C10.66 4 11.32 4 12 4 C12.33 4.66 12.66 5.32 13 6 C15.01669827 7.13350534 15.01669827 7.13350534 17 8 C17 8.66 17 9.32 17 10 C12.56473186 8.69047721 9.00013681 6.95266332 5.125 4.4375 C4.15820312 3.81746094 3.19140625 3.19742188 2.1953125 2.55859375 C1.47085938 2.04425781 0.74640625 1.52992188 0 1 C0 0.67 0 0.34 0 0 Z " fill="#559FE9" transform="translate(100,153)"/>
<path d="M0 0 C4.55737263 0.43820891 7.57653445 0.85041169 11 4 C7.91190305 5.76462683 6.76687864 6 3 6 C3.33 4.68 3.66 3.36 4 2 C2.02463255 2.34786708 2.02463255 2.34786708 0 3 C-0.33 3.66 -0.66 4.32 -1 5 C-0.67 3.35 -0.34 1.7 0 0 Z " fill="#238AF2" transform="translate(43,42)"/>
<path d="M0 0 C-0.33 0.66 -0.66 1.32 -1 2 C1.64 2 4.28 2 7 2 C5.9375 3.5625 5.9375 3.5625 4 5 C-0.10335951 4.92539346 -2.274699 4.61371623 -5.4375 1.9375 C-6.2109375 0.9784375 -6.2109375 0.9784375 -7 0 C-3.98968256 -0.93423645 -3.13349732 -1.04449911 0 0 Z " fill="#4898EA" transform="translate(95,91)"/>
<path d="M0 0 C0.66 0 1.32 0 2 0 C2.33 0.99 2.66 1.98 3 3 C1.44038638 3.96302356 -0.12283225 4.92021004 -1.6875 5.875 C-2.55761719 6.40867188 -3.42773438 6.94234375 -4.32421875 7.4921875 C-6.83391082 8.90640814 -9.30299069 9.99894789 -12 11 C-12 10.34 -12 9.68 -12 9 C-8.63958702 6.11964602 -5.17522305 4.39174102 -1 3 C-0.67 2.01 -0.34 1.02 0 0 Z " fill="#4492EA" transform="translate(193,143)"/>
<path d="M0 0 C3.96 1.98 7.92 3.96 12 6 C12 6.33 12 6.66 12 7 C9.69 7.33 7.38 7.66 5 8 C4.731875 7.195625 4.46375 6.39125 4.1875 5.5625 C3.795625 4.716875 3.40375 3.87125 3 3 C2.01 2.67 1.02 2.34 0 2 C0 1.34 0 0.68 0 0 Z " fill="#3694EC" transform="translate(125,142)"/>
<path d="M0 0 C5.31027254 1.46032495 9.46330032 3.98320986 14 7 C11 8 11 8 8 7 C8 6.34 8 5.68 8 5 C7.05125 5.020625 6.1025 5.04125 5.125 5.0625 C2 5 2 5 0 4 C0 2.68 0 1.36 0 0 Z " fill="#4597EA" transform="translate(64,52)"/>
<path d="M0 0 C1.65 0 3.3 0 5 0 C1.59287819 3.97497544 -2.32760855 5.86793788 -7 8 C-7 7.01 -7 6.02 -7 5 C-6.01 5 -5.02 5 -4 5 C-4 4.34 -4 3.68 -4 3 C-2.68 3 -1.36 3 0 3 C0 2.01 0 1.02 0 0 Z " fill="#4B9BE8" transform="translate(112,84)"/>
<path d="M0 0 C1.65 0.33 3.3 0.66 5 1 C1.4912812 4.09592835 -1.49197399 5.74194623 -6 7 C-6 6.01 -6 5.02 -6 4 C-4.68 4 -3.36 4 -2 4 C-2 3.34 -2 2.68 -2 2 C-1.34 2 -0.68 2 0 2 C0 1.34 0 0.68 0 0 Z " fill="#4299EB" transform="translate(159,163)"/>
<path d="M0 0 C-2.83430453 3.2542015 -4.68607774 4.5206753 -9 5 C-9.33 3.68 -9.66 2.36 -10 1 C-6.52674819 -0.1577506 -3.63932552 -0.06866652 0 0 Z " fill="#2C8BEB" transform="translate(180,154)"/>
<path d="M0 0 C3.99500618 1.3697164 6.80009492 3.25722422 10 6 C6.7 6 3.4 6 0 6 C0 5.34 0 4.68 0 4 C0.66 4 1.32 4 2 4 C2 3.34 2 2.68 2 2 C1.34 2 0.68 2 0 2 C0 1.34 0 0.68 0 0 Z " fill="#3F96EA" transform="translate(54,46)"/>
<path d="M0 0 C0.598125 0.350625 1.19625 0.70125 1.8125 1.0625 C1.8125 1.7225 1.8125 2.3825 1.8125 3.0625 C-0.1675 3.7225 -2.1475 4.3825 -4.1875 5.0625 C-4.5175 3.4125 -4.8475 1.7625 -5.1875 0.0625 C-2.1875 -0.9375 -2.1875 -0.9375 0 0 Z " fill="#2991F0" transform="translate(150.1875,168.9375)"/>
<path d="M0 0 C0.33 0.99 0.66 1.98 1 3 C-0.98 3 -2.96 3 -5 3 C-5 3.66 -5 4.32 -5 5 C-6.98 5 -8.96 5 -11 5 C-9.04754573 1.09509146 -4.11653518 0 0 0 Z " fill="#5BA1E6" transform="translate(195,92)"/>
<path d="M0 0 C1.64666203 0.1135629 3.29236082 0.24117381 4.9375 0.375 C5.85402344 0.44460937 6.77054688 0.51421875 7.71484375 0.5859375 C8.84599609 0.79089844 8.84599609 0.79089844 10 1 C10.33 1.66 10.66 2.32 11 3 C7.33519927 3.93750716 5.59943946 4.28668844 2.125 2.625 C1.42375 2.08875 0.7225 1.5525 0 1 C0 0.67 0 0.34 0 0 Z " fill="#69A9E9" transform="translate(52,126)"/>
<path d="M0 0 C1.134375 0.020625 2.26875 0.04125 3.4375 0.0625 C2.81875 0.35125 2.2 0.64 1.5625 0.9375 C-0.69575765 1.99970042 -0.69575765 1.99970042 -2.5625 4.0625 C-3.02256346 6.26500992 -3.02256346 6.26500992 -3.1875 8.6875 C-3.26226562 9.50476563 -3.33703125 10.32203125 -3.4140625 11.1640625 C-3.48753906 12.10378906 -3.48753906 12.10378906 -3.5625 13.0625 C-3.8925 13.0625 -4.2225 13.0625 -4.5625 13.0625 C-4.58936553 11.08340602 -4.60883375 9.10421029 -4.625 7.125 C-4.63660156 6.02285156 -4.64820313 4.92070313 -4.66015625 3.78515625 C-4.51237367 -0.33502211 -4.25789233 0.07469987 0 0 Z " fill="#398FE9" transform="translate(66.5625,79.9375)"/>
<path d="M0 0 C0.33 1.32 0.66 2.64 1 4 C-5.45 8.09326923 -5.45 8.09326923 -8.234375 7.62109375 C-8.81703125 7.41613281 -9.3996875 7.21117187 -10 7 C-9.36191406 6.66226563 -8.72382813 6.32453125 -8.06640625 5.9765625 C-7.24011719 5.53054687 -6.41382813 5.08453125 -5.5625 4.625 C-4.73878906 4.18414062 -3.91507813 3.74328125 -3.06640625 3.2890625 C-0.86533422 2.16581441 -0.86533422 2.16581441 0 0 Z " fill="#58A3EA" transform="translate(173,131)"/>
<path d="M0 0 C0.33 0.99 0.66 1.98 1 3 C1.66 3 2.32 3 3 3 C3.33 3.99 3.66 4.98 4 6 C6.01508358 6.73323796 6.01508358 6.73323796 8 7 C8 7.66 8 8.32 8 9 C5.6875 9.3125 5.6875 9.3125 3 9 C0.36439287 5.72821183 0 4.27931853 0 0 Z " fill="#65ACE7" transform="translate(174,66)"/>
<path d="M0 0 C2.31 0 4.62 0 7 0 C7.33 1.65 7.66 3.3 8 5 C7.34 4.34 6.68 3.68 6 3 C4.0068433 2.97624074 4.0068433 2.97624074 1.875 3.375 C0.59625 3.58125 -0.6825 3.7875 -2 4 C-2 3.34 -2 2.68 -2 2 C-1.34 2 -0.68 2 0 2 C0 1.34 0 0.68 0 0 Z " fill="#4C9BE8" transform="translate(122,79)"/>
<path d="M0 0 C0 0.66 0 1.32 0 2 C-0.99 2 -1.98 2 -3 2 C-3 2.99 -3 3.98 -3 5 C-5.64 5 -8.28 5 -11 5 C-11 4.34 -11 3.68 -11 3 C-10.071875 2.87625 -9.14375 2.7525 -8.1875 2.625 C-5.03685323 2.00722612 -3.08513228 0 0 0 Z " fill="#57A3EA" transform="translate(105,66)"/>
<path d="M0 0 C0 0.99 0 1.98 0 3 C-3.3 3.33 -6.6 3.66 -10 4 C-6.2751896 0.2751896 -5.07777425 -0.13362564 0 0 Z " fill="#559FE7" transform="translate(195,42)"/>
<path d="M0 0 C-1.28813342 0.83878455 -2.58063256 1.67086783 -3.875 2.5 C-4.59429687 2.9640625 -5.31359375 3.428125 -6.0546875 3.90625 C-8 5 -8 5 -10 5 C-10 4.34 -10 3.68 -10 3 C-9.34 3 -8.68 3 -8 3 C-8 2.34 -8 1.68 -8 1 C-3.375 -1.125 -3.375 -1.125 0 0 Z " fill="#4D96E7" transform="translate(146,124)"/>
<path d="M0 0 C0.66 0.33 1.32 0.66 2 1 C1 4 1 4 -1.3125 5.25 C-4.16597407 6.04631835 -5.24802325 5.8214856 -8 5 C-6.71475739 4.13619741 -5.42157581 3.28419631 -4.125 2.4375 C-3.04605469 1.72400391 -3.04605469 1.72400391 -1.9453125 0.99609375 C-1.30335937 0.66738281 -0.66140625 0.33867188 0 0 Z " fill="#5EA6EB" transform="translate(117,113)"/>
<path d="M0 0 C0.721875 0.144375 1.44375 0.28875 2.1875 0.4375 C3.5796875 0.7159375 3.5796875 0.7159375 5 1 C6.66666667 1.33333333 8.33333333 1.66666667 10 2 C10 2.66 10 3.32 10 4 C8.375 4.75 8.375 4.75 6 5 C2.75 3.125 2.75 3.125 0 1 C0 0.67 0 0.34 0 0 Z " fill="#4899EB" transform="translate(100,153)"/>
<path d="M0 0 C0.66 0.33 1.32 0.66 2 1 C-0.16687491 3.27521866 -2.45620509 5.15794162 -5 7 C-5.99 6.34 -6.98 5.68 -8 5 C-6.71475739 4.13619741 -5.42157581 3.28419631 -4.125 2.4375 C-3.04605469 1.72400391 -3.04605469 1.72400391 -1.9453125 0.99609375 C-1.30335937 0.66738281 -0.66140625 0.33867188 0 0 Z " fill="#5EA1EC" transform="translate(122,55)"/>
<path d="M0 0 C0 0.99 0 1.98 0 3 C-4.43076923 5.09230769 -4.43076923 5.09230769 -7.3125 4.625 C-7.869375 4.41875 -8.42625 4.2125 -9 4 C-2.25 0 -2.25 0 0 0 Z " fill="#5AA2EC" transform="translate(133,50)"/>
<path d="M0 0 C2.31 0.33 4.62 0.66 7 1 C7 1.33 7 1.66 7 2 C5.865625 2.12375 4.73125 2.2475 3.5625 2.375 C1.7990625 2.684375 1.7990625 2.684375 0 3 C-0.33 3.66 -0.66 4.32 -1 5 C-0.67 3.35 -0.34 1.7 0 0 Z " fill="#4591E2" transform="translate(43,42)"/>
<path d="M0 0 C0 0.99 0 1.98 0 3 C-2.97 3.66 -5.94 4.32 -9 5 C-4 0 -4 0 0 0 Z " fill="#5FA9EC" transform="translate(156,143)"/>
<path d="M0 0 C0.33 0 0.66 0 1 0 C1 1.65 1 3.3 1 5 C2.32 5.66 3.64 6.32 5 7 C5 7.66 5 8.32 5 9 C2.525 8.01 2.525 8.01 0 7 C0 4.69 0 2.38 0 0 Z " fill="#3C8CE2" transform="translate(42,114)"/>
</svg>
