<?xml version="1.0" encoding="UTF-8"?>
<svg version="1.1" xmlns="http://www.w3.org/2000/svg" width="300" height="300">
<path d="M0 0 C5.7375002 4.6245403 11.06126419 9.53805361 16.171875 14.83984375 C16.85813965 15.54568604 17.5444043 16.25152832 18.25146484 16.97875977 C19.60517834 18.37766046 20.94742665 19.78778156 22.27587891 21.21069336 C30.13942149 29.33913196 39.97284754 33.980619 51.38647461 34.31445312 C64.88950028 34.3514773 74.41023624 30.21015588 84.3359375 20.8828125 C86.47057295 18.62009892 88.40248288 16.32507097 90.3359375 13.8828125 C92.58542073 19.68116989 88.66460375 25.58163687 86.3359375 30.8828125 C79.129168 46.35555969 67.52371049 59.63959427 51.3359375 65.8828125 C43.50192147 68.36554135 35.58462223 70.52753207 27.3359375 70.8828125 C26.58570313 70.92277344 25.83546875 70.96273437 25.0625 71.00390625 C2.9589997 71.61193134 -17.53009056 63.93041015 -33.5390625 48.8828125 C-37.43512134 45.14984908 -41.22224688 41.3204914 -44.9765625 37.4453125 C-53.86157941 28.44465546 -65.61695363 21.00517242 -78.55078125 20.84765625 C-92.3961415 21.57449334 -101.70517608 27.64533438 -111.21875 37.26953125 C-112.86479356 39.0300199 -112.86479356 39.0300199 -114.6640625 41.8828125 C-115.3240625 41.8828125 -115.9840625 41.8828125 -116.6640625 41.8828125 C-114.28043237 25.80220329 -106.56838634 11.91652161 -94.6640625 0.8828125 C-67.55321195 -18.85578921 -27.34963067 -20.4458404 0 0 Z " fill="#06B6D5" transform="translate(196.6640625,81.1171875)"/>
<path d="M0 0 C2.19714696 2.12536081 4.32550893 4.31131112 6.45556641 6.50390625 C7.31456543 7.38344971 8.17356445 8.26299316 9.05859375 9.16918945 C10.76919051 10.93335164 12.46447749 12.71253147 14.14160156 14.50854492 C23.22920221 23.93618251 33.98198036 29.42242152 47.12353516 30.00390625 C60.56534713 29.60649616 70.79039855 23.24995633 79.83837891 13.7421875 C80.46873047 13.06542969 81.09908203 12.38867188 81.74853516 11.69140625 C82.74409078 10.68698154 83.74224604 9.68507733 84.74853516 8.69140625 C86.17674854 11.54783303 85.29013941 12.86846538 84.31103516 15.87890625 C80.01941295 28.12178741 74.10445212 38.60877208 64.74853516 47.69140625 C64.03955078 48.40941406 63.33056641 49.12742187 62.60009766 49.8671875 C49.34605842 62.57096879 31.45116842 66.34015744 13.58764648 66.09594727 C-8.00562902 65.32611363 -26.60693134 56.25683941 -42.30224609 41.79296875 C-44.25146484 39.69140625 -44.25146484 39.69140625 -44.25146484 37.69140625 C-44.83798828 37.43746094 -45.42451172 37.18351562 -46.02880859 36.921875 C-48.48838842 35.56024469 -49.92679018 34.07857559 -51.81396484 32.00390625 C-60.48624982 23.13854628 -71.59482013 16.61783982 -84.12646484 16.19140625 C-96.05719799 16.60503947 -105.37409137 20.74322645 -114.25146484 28.69140625 C-116.48394072 31.23046972 -118.44933539 33.83233167 -120.25146484 36.69140625 C-121.24146484 36.36140625 -122.23146484 36.03140625 -123.25146484 35.69140625 C-117.88093898 16.18922015 -109.05101984 0.49655617 -91.25146484 -10.30859375 C-62.42150423 -24.99122621 -24.24812311 -22.31685667 0 0 Z " fill="#06B6D5" transform="translate(134.25146484375,168.30859375)"/>
</svg>
