<?xml version="1.0" encoding="UTF-8"?>
<svg version="1.1" xmlns="http://www.w3.org/2000/svg" width="500" height="500">
<path d="M0 0 C0.72342935 -0.00380567 1.44685869 -0.00761134 2.19221014 -0.01153234 C4.61117639 -0.02182129 7.0299068 -0.01794697 9.44888878 -0.01409245 C11.20283244 -0.01854632 12.95677409 -0.02386085 14.71071279 -0.02996117 C19.52688534 -0.04413377 24.34299333 -0.0458046 29.15918374 -0.04536426 C34.35500881 -0.04701312 39.55080734 -0.06008096 44.74661827 -0.07155704 C56.10621811 -0.094401 67.46579926 -0.10232703 78.82541895 -0.10738349 C85.92009986 -0.11064125 93.01477535 -0.11716423 100.1094532 -0.12438488 C119.75758311 -0.14395013 139.40570799 -0.16035474 159.05384827 -0.16326141 C160.31103451 -0.16344898 161.56822075 -0.16363655 162.86350354 -0.16382981 C165.4120632 -0.16419605 167.96062286 -0.16455975 170.50918253 -0.16492092 C171.77426942 -0.16510373 173.0393563 -0.16528654 174.34277916 -0.16547489 C175.60941251 -0.16565544 176.87604585 -0.16583599 178.18106203 -0.16602201 C198.70310327 -0.16956333 219.22503955 -0.19658348 239.7470444 -0.23397278 C260.82319569 -0.27206399 281.89929491 -0.29141895 302.97548139 -0.29172093 C314.80636719 -0.29230532 326.63712779 -0.30078556 338.46798134 -0.32971859 C348.54249855 -0.3542433 358.61684491 -0.36150792 368.69138391 -0.34647106 C373.82924418 -0.33930669 378.96676711 -0.34013953 384.10458946 -0.36288166 C388.81390045 -0.38352684 393.52261595 -0.3808196 398.23192088 -0.36000682 C399.92978277 -0.35652251 401.6276881 -0.36137674 403.32549305 -0.37571125 C419.16683112 -0.50077119 430.96868938 3.11217109 442.63916588 14.28740597 C450.83346315 22.83730482 455.63971413 32.53041766 455.65619946 44.35611629 C455.65855169 45.07469533 455.66090392 45.79327437 455.66332743 46.53362852 C455.67001207 48.95409222 455.66955936 51.37450217 455.6691494 53.79497433 C455.67244836 55.54291522 455.676174 57.29085536 455.68029088 59.03879452 C455.69031543 63.85225977 455.69402841 68.66571256 455.69668019 73.47918677 C455.70058193 78.66685724 455.71016041 83.85451781 455.71889305 89.04218197 C455.73866192 101.57609046 455.74872456 114.10999976 455.75762084 126.64391994 C455.76200336 132.54583444 455.76737029 138.44774804 455.77260971 144.34966183 C455.78962299 163.96850555 455.804117 183.58734872 455.81135845 203.20619869 C455.81326836 208.2982092 455.81518869 213.3902197 455.81714439 218.48223019 C455.81762813 219.74783173 455.81811187 221.01343328 455.81861027 222.31738639 C455.82690992 242.81764191 455.8522453 263.31783906 455.88472507 283.8180691 C455.91779701 304.8636058 455.93580737 325.90911285 455.93900269 346.95467567 C455.94116774 358.77158571 455.94991565 370.58841066 455.97546387 382.40529537 C455.99717272 392.46964516 456.00522036 402.5338892 455.99549709 412.59825975 C455.99095286 417.73188235 455.99284588 422.86528676 456.01225853 427.99887943 C456.02989413 432.70324724 456.02888914 437.40723774 456.01336124 442.11160958 C456.01098577 443.8088705 456.01530551 445.50615758 456.02718989 447.20337856 C456.13517997 463.6511229 452.58580934 475.74830927 441.20947838 488.01006222 C429.48928648 499.12720174 416.72109801 500.70744674 401.35455894 500.6544714 C399.59888753 500.65936385 397.84321934 500.6655553 396.0875566 500.67292929 C391.27586967 500.6893071 386.46434681 500.68701525 381.65264177 500.68155432 C376.45820837 500.67888145 371.26381845 500.69342081 366.06940269 500.70564938 C355.89744079 500.7266951 345.7255359 500.7312447 335.5535548 500.72946149 C327.28394585 500.72815336 319.01435467 500.73196061 310.74474907 500.73938656 C308.36178517 500.74148578 305.97882128 500.74358338 303.59585738 500.74567938 C302.40974521 500.74672291 301.22363303 500.74776643 300.00157806 500.74884158 C277.57285706 500.76774071 255.14416877 500.76669484 232.7154431 500.75987226 C212.2064578 500.75429781 191.69759745 500.77511869 171.18864134 500.80823272 C150.12146169 500.84198358 129.05434188 500.85713626 107.9871347 500.8525157 C96.1629919 500.85027233 84.33896457 500.85549483 72.51484489 500.88040829 C62.44768828 500.90143944 52.38071045 500.90499535 42.31354645 500.8861087 C37.17972813 500.87696192 32.04624299 500.87577555 26.91245079 500.89646435 C22.2069117 500.91521714 17.50197768 500.91062263 12.79646131 500.88791853 C11.10000867 500.88374363 9.40350925 500.88789523 7.70710614 500.90151447 C-8.10737252 501.01976687 -20.05543659 497.44323492 -31.63036537 486.16240597 C-40.39772829 476.90524623 -44.72123788 466.44220089 -44.73529053 453.68464088 C-44.74054964 452.60193243 -44.74054964 452.60193243 -44.745915 451.49735108 C-44.75518435 449.08994481 -44.75031733 446.68278282 -44.74544716 444.27536678 C-44.74918566 442.52738461 -44.75378798 440.77940411 -44.7591778 439.03142625 C-44.77139829 434.23645127 -44.77114846 429.44154611 -44.76878905 424.64655912 C-44.76838065 419.47192428 -44.77942222 414.29731176 -44.78890419 409.12268734 C-44.80550959 398.98803215 -44.81101352 388.85340022 -44.81212895 378.71873256 C-44.81307957 370.48055071 -44.81719057 362.24237654 -44.8235302 354.00419712 C-44.84114078 330.64406867 -44.85036927 307.28395858 -44.84886925 283.92382344 C-44.84878934 282.6647505 -44.84870942 281.40567756 -44.84862709 280.10845089 C-44.84854533 278.84783965 -44.84846357 277.58722842 -44.84837933 276.28841684 C-44.84756632 255.85563486 -44.86670827 235.42292657 -44.89490382 214.99016591 C-44.92363078 194.006654 -44.93744424 173.02317804 -44.93571627 152.03964597 C-44.93505234 140.26027966 -44.94054611 128.48099063 -44.96207237 116.70164204 C-44.98028158 106.67322048 -44.98463354 96.64491124 -44.97105353 86.61648031 C-44.96452283 81.50118525 -44.96441056 76.38610568 -44.98176003 71.27083111 C-44.99749085 66.58455516 -44.99462691 61.89866557 -44.97719176 57.21239904 C-44.97412193 55.52066189 -44.97775363 53.82889589 -44.98891191 52.13719275 C-45.08524026 36.49184861 -41.65476641 24.81080711 -30.85302162 13.13506222 C-22.20529144 4.83589698 -12.01171459 0.01824529 0 0 Z M278.52197838 258.26006222 C267.83152 271.34452286 263.42262402 286.68053678 264.7426815 303.45830441 C266.56084428 320.69686645 274.38803238 334.2652839 287.52197838 345.26006222 C299.6535238 354.52032489 313.92320671 360.55932442 327.85791588 366.57646847 C355.23849323 378.43557203 355.23849323 378.43557203 361.52197838 391.26006222 C363.27339299 396.51430607 363.22989525 401.30432499 361.08447838 406.38506222 C357.50931186 412.77018417 351.22600477 415.90393743 344.45947838 418.07256222 C340.17956609 419.19020444 335.94069218 419.99542056 331.52197838 420.26006222 C330.28641197 420.33933956 330.28641197 420.33933956 329.02588463 420.42021847 C307.43527132 421.10896203 288.66077597 414.38044924 270.52197838 403.26006222 C268.87197838 402.27006222 267.22197838 401.28006222 265.52197838 400.26006222 C265.52197838 415.44006222 265.52197838 430.62006222 265.52197838 446.26006222 C273.90157294 450.4498595 280.59594951 453.15876367 289.52197838 455.26006222 C291.41303307 455.71252316 291.41303307 455.71252316 293.34229088 456.17412472 C322.88054786 462.35858778 361.68964308 461.67801695 387.72241783 445.13701534 C400.64842785 436.43801224 410.02653965 424.19726375 413.15796471 408.75249386 C415.05328578 395.77507412 414.99326471 381.32450746 409.52197838 369.26006222 C409.14428307 368.34869503 408.76658775 367.43732784 408.37744713 366.49834347 C398.03079993 344.58595771 374.41382381 334.85886995 353.58740807 325.70000362 C322.06140341 311.81250726 322.06140341 311.81250726 317.15088463 300.42803097 C315.72181128 295.50172224 315.53812724 290.85797329 317.36963463 286.02178097 C321.23682467 279.06083889 327.10206712 275.83853287 334.52197838 273.51006222 C359.44365615 267.49448482 381.96597477 274.7339272 404.52197838 285.26006222 C404.52197838 271.07006222 404.52197838 256.88006222 404.52197838 242.26006222 C369.280446 224.63929603 306.29201711 227.86449255 278.52197838 258.26006222 Z M71.52197838 238.26006222 C71.52197838 251.13006222 71.52197838 264.00006222 71.52197838 277.26006222 C91.98197838 277.26006222 112.44197838 277.26006222 133.52197838 277.26006222 C133.52197838 336.33006222 133.52197838 395.40006222 133.52197838 456.26006222 C149.36197838 456.26006222 165.20197838 456.26006222 181.52197838 456.26006222 C181.52197838 397.19006222 181.52197838 338.12006222 181.52197838 277.26006222 C202.64197838 277.26006222 223.76197838 277.26006222 245.52197838 277.26006222 C245.52197838 264.39006222 245.52197838 251.52006222 245.52197838 238.26006222 C188.10197838 238.26006222 130.68197838 238.26006222 71.52197838 238.26006222 Z " fill="#3278C6" transform="translate(44.4780216217041,-0.26006221771240234)"/>
</svg>
