<?xml version="1.0" standalone="no"?>
<!DOCTYPE svg PUBLIC "-//W3C//DTD SVG 20010904//EN"
 "http://www.w3.org/TR/2001/REC-SVG-20010904/DTD/svg10.dtd">
<svg version="1.0" xmlns="http://www.w3.org/2000/svg"
 width="403.000000pt" height="620.000000pt" viewBox="0 0 403.000000 620.000000"
 preserveAspectRatio="xMidYMid meet">

<g transform="translate(0.000000,620.000000) scale(0.100000,-0.100000)"
fill="#8f8bb4" stroke="none">
<path d="M1823 5849 c-9 -9 -13 -48 -13 -118 -1 -77 -3 -101 -11 -88 -10 18
-44 23 -53 8 -3 -4 6 -6 19 -3 21 4 25 1 25 -22 0 -20 -5 -26 -21 -26 -15 0
-19 -5 -15 -16 3 -8 2 -12 -4 -9 -6 3 -11 18 -11 33 -2 25 -2 25 -6 4 -8 -42
49 -84 63 -47 14 36 24 9 24 -67 -1 -71 -3 -81 -14 -65 -7 9 -18 17 -23 17 -6
0 -17 -8 -24 -17 -13 -16 -12 -17 3 -5 19 15 38 8 38 -14 0 -8 5 -12 10 -9 6
3 10 0 10 -8 0 -9 -9 -12 -31 -9 -28 4 -30 2 -24 -17 3 -11 4 -21 1 -21 -3 0
-10 15 -15 33 -7 25 -9 27 -10 10 -1 -22 30 -63 48 -63 5 0 11 9 14 20 3 11
10 20 16 20 7 0 11 -31 11 -90 0 -75 -2 -88 -15 -84 -9 4 -15 0 -15 -10 0 -10
-8 -16 -21 -16 -16 0 -20 -5 -16 -20 3 -13 1 -18 -6 -14 -7 3 -3 -2 8 -11 19
-15 21 -15 34 4 22 34 41 26 41 -16 0 -26 3 -34 9 -24 7 11 13 7 25 -17 21
-41 22 -69 1 -52 -8 7 -15 20 -16 29 0 11 -2 12 -6 3 -3 -7 5 -24 18 -38 l22
-24 -7 -422 c-3 -233 -11 -646 -16 -918 -5 -272 -10 -554 -11 -626 l0 -132
-87 -7 c-170 -13 -305 -51 -380 -105 -22 -16 -42 -27 -44 -24 -9 9 -46 -44
-74 -106 -27 -60 -29 -74 -28 -175 0 -79 8 -146 27 -236 34 -158 36 -275 7
-352 -11 -30 -52 -105 -90 -168 -180 -295 -233 -448 -232 -674 0 -289 95 -482
302 -615 44 -28 94 -53 111 -57 44 -8 31 11 -24 36 -119 54 -233 163 -290 276
-55 111 -68 166 -74 316 -8 196 14 302 101 478 41 84 56 110 144 249 50 80 80
156 93 235 10 63 3 137 -33 332 -41 223 -21 345 70 426 95 84 214 124 400 135
l112 7 0 -162 c0 -97 4 -160 9 -156 5 3 12 -3 14 -12 4 -15 5 -16 6 -2 1 14
14 17 70 18 65 1 70 -1 74 -22 l4 -22 2 23 c1 16 7 22 26 22 21 0 25 -5 25
-30 l0 -31 -110 2 c-61 1 -114 -1 -117 -5 -7 -7 -7 -7 125 -7 l102 0 0 -59 0
-60 -92 0 c-51 0 -87 -4 -81 -8 9 -6 0 -14 -27 -26 -43 -19 -99 -78 -127 -135
-12 -25 -18 -60 -18 -111 0 -89 19 -134 81 -197 23 -23 44 -47 47 -55 4 -10 6
-10 6 0 2 21 41 -6 41 -28 0 -25 0 -25 -55 1 -55 26 -120 102 -146 169 -23 60
-25 151 -4 210 29 83 134 194 165 175 5 -3 10 -1 10 4 0 6 -4 11 -9 11 -5 0
-16 2 -24 5 -17 7 -112 -76 -135 -119 -28 -52 -42 -108 -42 -169 0 -104 24
-168 89 -241 24 -26 100 -80 111 -79 3 1 13 -3 23 -8 15 -9 17 -29 17 -194 l0
-185 -25 0 c-23 0 -24 3 -28 68 l-3 67 -2 -67 -2 -68 -114 0 c-107 0 -116 -1
-130 -22 -9 -12 -16 -34 -16 -49 0 -24 4 -27 45 -32 30 -3 65 -18 103 -43 141
-96 268 -124 384 -85 36 12 89 37 119 56 84 54 131 75 168 75 33 0 34 0 28 37
-4 21 -14 44 -24 50 -16 13 -129 17 -351 13 l-83 -1 1 180 2 179 45 0 c25 0
58 6 74 13 32 13 53 4 29 -11 -10 -7 -11 -10 -2 -10 9 0 12 -33 14 -127 1 -90
3 -115 8 -83 4 25 8 38 8 29 1 -8 16 -36 32 -61 23 -34 44 -51 82 -68 106 -46
295 -7 352 73 53 73 21 281 -75 486 -74 157 -247 410 -317 464 -61 47 -79 35
-73 -45 1 -16 -3 -28 -8 -28 -16 0 -14 107 2 113 9 4 9 6 0 6 -8 1 -13 14 -13
32 0 17 4 28 10 24 6 -3 10 -1 10 4 0 6 -4 11 -10 11 -6 0 -10 30 -10 70 0 40
4 70 10 70 6 0 10 34 10 82 l0 81 117 -7 c132 -7 212 -25 298 -66 187 -90 229
-219 169 -510 -35 -171 -39 -329 -10 -404 19 -51 84 -167 148 -267 60 -92 127
-242 149 -336 31 -125 31 -334 1 -452 -52 -200 -190 -352 -397 -438 -69 -29
-243 -70 -350 -84 -165 -20 -575 -10 -667 17 -11 3 -18 0 -18 -9 0 -16 21 -19
205 -37 222 -21 504 -5 675 39 353 91 528 262 590 578 21 104 8 319 -25 428
-30 101 -100 246 -172 356 -69 107 -122 216 -134 279 -12 67 -6 130 32 327 32
169 35 234 16 310 -15 58 -67 149 -112 197 -16 18 -23 23 -14 12 34 -44 30
-48 -15 -17 -25 18 -62 39 -80 46 -54 23 -203 53 -298 60 l-87 7 0 62 c0 33
-7 423 -15 866 -14 726 -20 1151 -16 1204 1 26 28 76 40 76 6 0 10 9 10 20 0
23 18 27 26 5 9 -21 51 -19 64 4 14 27 13 44 -5 67 -14 18 -14 17 -4 -8 9 -20
9 -34 1 -50 l-11 -23 0 24 c-1 21 -4 23 -36 18 -37 -6 -49 7 -15 16 11 3 20
12 20 21 0 9 5 16 12 16 6 0 8 3 5 7 -4 3 -17 -4 -30 -18 l-22 -24 -3 40 c-2
22 -1 65 3 95 6 47 9 52 20 37 16 -23 52 -22 65 2 14 27 13 44 -5 67 -14 18
-14 17 -4 -8 9 -21 9 -33 1 -50 l-12 -23 6 24 c6 22 4 23 -30 19 -40 -4 -42
-3 -23 17 32 37 37 45 27 45 -6 0 -13 -7 -16 -15 -14 -34 -24 -11 -24 54 0 52
4 74 17 86 13 14 14 18 3 25 -10 6 -12 34 -7 124 8 148 6 151 -102 141 -72 -6
-103 -17 -84 -28 4 -2 39 0 76 5 76 10 102 0 93 -36 -2 -12 -10 -165 -17 -341
-12 -307 -14 -321 -36 -354 -13 -19 -23 -39 -24 -45 0 -6 -4 -2 -9 9 -6 15 -9
6 -9 -33 l-1 -52 -60 1 c-45 1 -60 5 -63 18 -4 14 -5 13 -6 -1 -1 -14 -10 -18
-36 -18 -34 0 -35 1 -35 38 0 27 -3 33 -10 22 -8 -12 -10 -11 -10 6 0 12 -11
37 -23 56 -23 32 -24 47 -36 313 -6 154 -14 310 -18 346 -7 80 -3 83 102 70
72 -9 85 -7 69 8 -16 17 -167 24 -181 10z m7 -679 c0 -5 -4 -10 -10 -10 -5 0
-10 5 -10 10 0 6 5 10 10 10 6 0 10 -4 10 -10z m170 -780 l-1 -560 -50 0 -49
0 0 70 c0 55 3 71 18 79 16 10 16 10 -2 11 -17 0 -18 6 -12 73 4 39 8 114 9
165 2 70 6 95 17 102 10 6 11 10 3 10 -10 0 -13 68 -13 305 l1 305 39 0 40 0
0 -560z m121 491 c1 -51 3 -59 9 -36 6 23 8 15 9 -37 1 -45 -3 -68 -11 -71
-10 -4 -10 -8 1 -15 10 -7 12 -30 8 -98 -3 -49 -6 -133 -6 -186 0 -79 -3 -98
-15 -98 -8 0 -16 4 -18 9 -1 5 -9 3 -16 -5 -7 -8 -8 -14 -3 -14 7 0 10 -89 11
-250 0 -246 0 -250 -21 -250 -19 0 -20 5 -19 78 4 207 -1 925 -6 920 -3 -3 -5
-229 -5 -502 1 -429 -1 -496 -14 -496 -13 0 -15 75 -15 559 l0 559 55 0 55 0
1 -67z m26 -503 c-2 -24 -4 -5 -4 42 0 47 2 66 4 43 2 -24 2 -62 0 -85z m-15
-215 c1 -130 3 -150 8 -88 l5 80 5 -83 c4 -61 2 -82 -7 -82 -7 0 -13 -4 -13
-10 0 -5 6 -9 13 -7 8 1 13 -19 15 -70 l3 -73 -31 0 -30 0 0 250 c0 216 2 250
15 250 13 0 15 -26 17 -167z m15 34 c-2 -23 -3 -1 -3 48 0 50 1 68 3 42 2 -26
2 -67 0 -90z m-148 -512 l0 -135 -45 0 -46 0 4 70 c2 39 0 70 -4 70 -10 0 -11
114 -1 123 3 4 26 7 49 7 l43 0 0 -135z m41 0 c0 -113 -2 -135 -15 -135 -13 0
-15 22 -15 135 0 113 2 135 15 135 13 0 15 -22 15 -135z m50 0 c0 -128 -1
-135 -20 -135 -19 0 -20 7 -20 135 0 128 1 135 20 135 19 0 20 -7 20 -135z
m70 70 c0 -52 -3 -65 -16 -65 -8 0 -12 -5 -9 -10 4 -6 11 -8 16 -5 5 4 9 -22
8 -62 0 -47 -3 -62 -9 -48 -7 17 -9 17 -9 3 -1 -11 -9 -18 -21 -18 -19 0 -20
7 -20 135 l0 135 30 0 30 0 0 -65z m-160 -275 l0 -60 -45 0 -45 0 0 60 0 60
45 0 45 0 0 -60z m40 0 c0 -47 -3 -60 -15 -60 -12 0 -15 13 -15 60 0 47 3 60
15 60 12 0 15 -13 15 -60z m100 0 l0 -60 -45 0 -45 0 0 60 0 60 45 0 45 0 0
-60z m21 -53 c-8 -8 -11 7 -10 54 l1 64 10 -54 c7 -37 7 -56 -1 -64z m-264 21
c-2 -18 -4 -6 -4 27 0 33 2 48 4 33 2 -15 2 -42 0 -60z m0 -120 c-2 -18 -4 -6
-4 27 0 33 2 48 4 33 2 -15 2 -42 0 -60z m104 70 c0 -10 2 -10 6 0 2 6 11 12
19 12 10 0 14 -14 14 -55 l0 -55 -65 1 -65 2 0 53 0 54 45 0 c29 0 45 -4 46
-12z m139 -43 l0 -55 -45 0 -45 0 0 55 0 55 45 0 45 0 0 -55z m30 0 c0 -30 -4
-55 -10 -55 -5 0 -10 25 -10 55 0 30 5 55 10 55 6 0 10 -25 10 -55z m-273
-147 c-2 -18 -4 -6 -4 27 0 33 2 48 4 33 2 -15 2 -42 0 -60z m143 28 l0 -54
-42 0 c-24 -1 -46 5 -50 11 -6 9 -8 9 -8 0 0 -7 -7 -13 -15 -13 -12 0 -15 13
-15 55 l0 55 65 0 65 0 0 -54z m100 -1 l0 -55 -45 0 -45 0 0 55 0 55 45 0 45
0 0 -55z m30 0 c0 -30 -4 -55 -10 -55 -5 0 -10 25 -10 55 0 30 5 55 10 55 6 0
10 -25 10 -55z m-230 -295 c0 -177 -3 -230 -12 -231 -10 0 -10 -2 0 -6 8 -3
12 -26 12 -65 0 -34 2 -59 5 -56 3 3 6 136 6 297 l0 291 44 0 45 0 0 -230 0
-230 -37 -2 -38 -1 38 -4 37 -4 2 -62 2 -62 3 60 c2 33 10 63 16 67 9 6 9 8 0
8 -9 0 -12 47 -12 180 0 163 2 180 17 181 16 1 15 2 0 6 -14 3 -18 15 -18 49
l0 44 45 0 45 0 2 -37 1 -38 4 38 c6 53 23 46 23 -9 0 -37 -3 -45 -15 -40 -9
3 -15 0 -15 -9 0 -9 6 -12 15 -9 13 5 15 -18 14 -177 -1 -108 -5 -169 -9 -149
l-7 35 -2 -32 c-1 -26 -5 -33 -21 -33 -18 0 -20 7 -20 72 0 39 -3 69 -6 65 -3
-3 -6 -34 -5 -68 0 -40 -4 -66 -12 -71 -9 -6 -9 -8 1 -8 8 0 12 -21 12 -70 l0
-70 -100 0 -100 0 1 158 c0 86 0 175 -2 197 l-2 40 -7 -35 c-7 -34 -7 -34 -9
-6 0 16 6 38 16 48 9 11 11 18 5 18 -17 0 -16 90 1 91 10 0 10 2 0 6 -8 3 -13
23 -13 49 0 40 2 44 25 44 l25 0 0 -230z m-53 -122 c-2 -13 -4 -5 -4 17 -1 22
1 32 4 23 2 -10 2 -28 0 -40z m0 -90 c-2 -13 -4 -3 -4 22 0 25 2 35 4 23 2
-13 2 -33 0 -45z m0 -135 c-2 -21 -4 -4 -4 37 0 41 2 58 4 38 2 -21 2 -55 0
-75z m263 37 c0 -63 -2 -70 -20 -70 -18 0 -20 7 -20 70 0 63 2 70 20 70 18 0
20 -7 20 -70z m0 -110 c0 -23 -4 -30 -20 -30 -16 0 -20 7 -20 30 0 23 4 30 20
30 16 0 20 -7 20 -30z m0 -115 c0 -41 -2 -75 -4 -75 -2 0 -12 3 -21 6 -13 5
-14 8 -3 15 10 7 10 9 1 9 -9 0 -13 19 -13 60 0 53 2 60 20 60 18 0 20 -7 20
-75z m68 -74 c54 -40 99 -108 113 -172 13 -61 6 -162 -14 -212 -20 -46 -123
-151 -142 -143 -8 3 -15 1 -15 -4 0 -11 -50 -26 -112 -35 -44 -6 -48 -4 -48
14 0 15 6 21 23 21 61 0 139 31 184 73 127 117 125 298 -2 416 -41 38 -58 71
-37 71 5 0 27 -13 50 -29z m-228 -541 c0 -15 -7 -20 -25 -20 -18 0 -25 5 -25
20 0 15 7 20 25 20 18 0 25 -5 25 -20z m-9 -50 c17 0 9 -20 -8 -21 -17 -1 -17
-2 0 -6 15 -4 17 -21 17 -169 l0 -164 -25 0 -25 0 0 186 c0 166 2 185 16 180
9 -3 20 -6 25 -6z m-111 -380 c0 -6 -42 -10 -105 -10 -63 0 -105 4 -105 10 0
6 42 10 105 10 63 0 105 -4 105 -10z m60 0 c0 -5 -11 -10 -25 -10 -14 0 -25 5
-25 10 0 6 11 10 25 10 14 0 25 -4 25 -10z m60 0 c0 -5 -11 -10 -25 -10 -14 0
-25 5 -25 10 0 6 11 10 25 10 14 0 25 -4 25 -10z m50 0 c0 -5 -9 -10 -20 -10
-11 0 -20 5 -20 10 0 6 9 10 20 10 11 0 20 -4 20 -10z m70 0 c0 -5 -11 -10
-25 -10 -14 0 -25 5 -25 10 0 6 11 10 25 10 14 0 25 -4 25 -10z m50 0 c0 -5
-9 -10 -20 -10 -11 0 -20 5 -20 10 0 6 9 10 20 10 11 0 20 -4 20 -10z m255 0
c-4 -6 -55 -10 -121 -10 -69 0 -114 4 -114 10 0 6 47 10 121 10 77 0 118 -4
114 -10z m-190 -29 c9 -16 -6 -19 -118 -27 -73 -4 -107 -3 -107 4 0 6 28 13
63 16 98 9 131 13 144 14 6 1 14 -2 18 -7z m-235 -26 c0 -9 -9 -15 -25 -15
-16 0 -25 6 -25 15 0 9 9 15 25 15 16 0 25 -6 25 -15z m-120 -5 c0 -5 -12 -10
-26 -10 -14 0 -23 4 -19 10 3 6 15 10 26 10 10 0 19 -4 19 -10z m60 0 c0 -5
-11 -10 -25 -10 -14 0 -25 5 -25 10 0 6 11 10 25 10 14 0 25 -4 25 -10z m-40
-61 c0 -10 -6 -19 -14 -19 -15 0 -29 27 -21 40 9 15 35 -1 35 -21z m60 -5 c0
-16 -26 -19 -35 -4 -4 6 -4 18 -1 27 5 12 9 13 21 3 8 -7 15 -19 15 -26z m60
5 c0 -10 -6 -19 -14 -19 -15 0 -29 27 -21 40 9 15 35 -1 35 -21z m54 8 c12
-19 3 -32 -19 -24 -17 7 -21 51 -3 45 6 -2 16 -12 22 -21z m62 -16 c-10 -16
-23 -14 -30 5 -9 25 4 38 21 21 9 -8 12 -20 9 -26z m54 24 c9 -11 10 -19 2
-27 -14 -14 -32 -1 -32 23 0 23 13 25 30 4z"/>
<path d="M1950 4730 c0 -5 5 -10 11 -10 5 0 7 5 4 10 -3 6 -8 10 -11 10 -2 0
-4 -4 -4 -10z"/>
<path d="M1948 4413 c-2 -142 0 -285 3 -318 3 -33 6 83 7 258 1 174 0 317 -3
317 -2 0 -6 -116 -7 -257z"/>
<path d="M1945 3980 c4 -6 11 -8 16 -5 14 9 11 15 -7 15 -8 0 -12 -5 -9 -10z"/>
<path d="M2080 4730 c0 -5 5 -10 10 -10 6 0 10 5 10 10 0 6 -4 10 -10 10 -5 0
-10 -4 -10 -10z"/>
<path d="M2085 4520 c3 -5 8 -10 11 -10 2 0 4 5 4 10 0 6 -5 10 -11 10 -5 0
-7 -4 -4 -10z"/>
<path d="M2093 4405 c0 -22 2 -30 4 -17 2 12 2 30 0 40 -3 9 -5 -1 -4 -23z"/>
<path d="M1940 3680 c0 -5 5 -10 10 -10 6 0 10 5 10 10 0 6 -4 10 -10 10 -5 0
-10 -4 -10 -10z"/>
<path d="M1965 3130 c-3 -5 -1 -10 4 -10 6 0 11 5 11 10 0 6 -2 10 -4 10 -3 0
-8 -4 -11 -10z"/>
<path d="M1980 3076 c0 -2 7 -6 15 -10 8 -3 15 -1 15 4 0 6 -7 10 -15 10 -8 0
-15 -2 -15 -4z"/>
<path d="M2098 3073 c6 -2 18 -2 25 0 6 3 1 5 -13 5 -14 0 -19 -2 -12 -5z"/>
<path d="M2095 2970 c3 -5 8 -10 11 -10 2 0 4 5 4 10 0 6 -5 10 -11 10 -5 0
-7 -4 -4 -10z"/>
<path d="M1990 2880 c0 -5 5 -10 10 -10 6 0 10 5 10 10 0 6 -4 10 -10 10 -5 0
-10 -4 -10 -10z"/>
<path d="M2095 2881 c-3 -5 -1 -12 5 -16 5 -3 10 1 10 9 0 18 -6 21 -15 7z"/>
<path d="M2140 2880 c0 -5 5 -10 10 -10 6 0 10 5 10 10 0 6 -4 10 -10 10 -5 0
-10 -4 -10 -10z"/>
<path d="M1995 2790 c3 -5 8 -10 11 -10 2 0 4 5 4 10 0 6 -5 10 -11 10 -5 0
-7 -4 -4 -10z"/>
<path d="M2145 2790 c3 -5 8 -10 11 -10 2 0 4 5 4 10 0 6 -5 10 -11 10 -5 0
-7 -4 -4 -10z"/>
<path d="M1990 2630 c0 -5 5 -10 10 -10 6 0 10 5 10 10 0 6 -4 10 -10 10 -5 0
-10 -4 -10 -10z"/>
<path d="M2114 5674 c-17 -36 -17 -37 5 -55 17 -14 27 -16 42 -9 26 15 24 17
-13 13 -18 -2 -27 0 -20 3 6 3 9 10 6 16 -4 6 0 14 7 19 10 6 11 9 2 9 -7 0
-13 6 -13 14 0 8 6 17 13 19 9 4 9 6 0 6 -7 1 -20 -15 -29 -35z m3 -36 c-3 -8
-6 -5 -6 6 -1 11 2 17 5 13 3 -3 4 -12 1 -19z"/>
<path d="M1930 5673 c0 -24 -5 -33 -17 -34 -13 0 -14 -2 -4 -6 8 -3 21 3 29
13 13 19 14 19 10 -1 -2 -10 -14 -22 -28 -26 -22 -6 -23 -7 -4 -8 37 -2 49 24
30 62 l-16 32 0 -32z"/>
<path d="M1887 5673 c-13 -13 -7 -21 13 -16 11 3 17 9 14 14 -6 11 -18 12 -27
2z"/>
<path d="M1943 5565 c0 -22 2 -30 4 -17 2 12 2 30 0 40 -3 9 -5 -1 -4 -23z"/>
<path d="M2141 5574 c0 -11 3 -14 6 -6 3 7 2 16 -1 19 -3 4 -6 -2 -5 -13z"/>
<path d="M2290 5550 c-9 -6 -10 -10 -3 -10 6 0 15 5 18 10 8 12 4 12 -15 0z"/>
<path d="M2129 5502 c-3 -20 -2 -29 4 -23 5 5 7 19 5 32 -3 20 -5 19 -9 -9z"/>
<path d="M1950 5478 c0 -19 -2 -20 -10 -8 -8 12 -10 11 -10 -6 0 -12 7 -24 15
-28 12 -4 15 3 15 29 0 19 -2 35 -5 35 -3 0 -5 -10 -5 -22z"/>
<path d="M1897 5460 c-3 -11 -1 -20 4 -20 5 0 9 9 9 20 0 11 -2 20 -4 20 -2 0
-6 -9 -9 -20z"/>
<path d="M2109 5444 c-6 -7 -9 -19 -6 -26 3 -8 6 -6 6 6 1 15 7 17 36 14 19
-2 35 0 35 4 0 4 -3 8 -7 9 -5 0 -18 2 -31 3 -12 2 -27 -3 -33 -10z"/>
<path d="M1906 5418 c3 -4 12 -8 20 -8 8 0 14 4 14 8 0 4 -9 8 -19 8 -11 0
-17 -4 -15 -8z"/>
<path d="M1945 5406 c-6 -6 -8 -40 -4 -81 l5 -70 4 75 c2 62 4 69 10 40 7 -35
7 -35 9 -5 1 38 -10 57 -24 41z"/>
<path d="M2128 5413 c6 -2 18 -2 25 0 6 3 1 5 -13 5 -14 0 -19 -2 -12 -5z"/>
<path d="M2157 5400 c-11 -10 -17 -27 -14 -37 4 -17 5 -17 6 1 0 10 9 25 18
32 10 7 16 14 13 17 -3 2 -13 -4 -23 -13z"/>
<path d="M2101 5314 c0 -11 3 -14 6 -6 3 7 2 16 -1 19 -3 4 -6 -2 -5 -13z"/>
<path d="M2131 5304 c0 -11 3 -14 6 -6 3 7 2 16 -1 19 -3 4 -6 -2 -5 -13z"/>
<path d="M1972 5275 c0 -16 2 -22 5 -12 2 9 2 23 0 30 -3 6 -5 -1 -5 -18z"/>
<path d="M2092 5260 c0 -14 2 -19 5 -12 2 6 2 18 0 25 -3 6 -5 1 -5 -13z"/>
<path d="M2120 5249 c0 -5 5 -7 10 -4 6 3 10 8 10 11 0 2 -4 4 -10 4 -5 0 -10
-5 -10 -11z"/>
<path d="M1891 5220 c-7 -17 -10 -34 -7 -37 3 -4 6 1 6 10 0 8 5 17 11 19 6 2
10 12 8 21 -3 13 -7 10 -18 -13z"/>
<path d="M1930 5230 c0 -11 6 -20 14 -20 9 0 12 7 9 20 -3 11 -9 20 -14 20 -5
0 -9 -9 -9 -20z"/>
<path d="M2110 5215 c-6 -8 -10 -19 -8 -24 1 -6 8 1 15 14 13 28 11 31 -7 10z"/>
<path d="M2150 5220 c0 -5 7 -10 16 -10 8 0 12 5 9 10 -3 6 -10 10 -16 10 -5
0 -9 -4 -9 -10z"/>
<path d="M1752 5208 c-7 -7 -11 -23 -11 -37 l2 -26 4 25 c3 14 10 31 15 38 13
15 6 16 -10 0z"/>
<path d="M2081 5204 c0 -11 3 -14 6 -6 3 7 2 16 -1 19 -3 4 -6 -2 -5 -13z"/>
<path d="M1982 5180 c0 -19 2 -27 5 -17 2 9 2 25 0 35 -3 9 -5 1 -5 -18z"/>
<path d="M1910 5186 c7 -7 13 -7 20 0 6 6 3 10 -10 10 -13 0 -16 -4 -10 -10z"/>
<path d="M1943 5174 c-7 -7 -12 -28 -12 -46 l2 -33 4 30 c3 17 10 36 15 43 15
17 6 23 -9 6z"/>
<path d="M2128 5183 c6 -2 18 -2 25 0 6 3 1 5 -13 5 -14 0 -19 -2 -12 -5z"/>
<path d="M2157 5170 c-11 -10 -17 -27 -14 -37 4 -17 5 -17 6 1 0 10 9 25 18
32 10 7 16 14 13 17 -3 2 -13 -4 -23 -13z"/>
<path d="M2071 5144 c0 -11 3 -14 6 -6 3 7 2 16 -1 19 -3 4 -6 -2 -5 -13z"/>
<path d="M1953 5080 c0 -36 2 -50 4 -32 2 17 2 47 0 65 -2 17 -4 3 -4 -33z"/>
<path d="M2062 5090 c0 -14 2 -19 5 -12 2 6 2 18 0 25 -3 6 -5 1 -5 -13z"/>
<path d="M1992 5075 c0 -16 2 -22 5 -12 2 9 2 23 0 30 -3 6 -5 -1 -5 -18z"/>
<path d="M2102 5070 c0 -14 2 -19 5 -12 2 6 2 18 0 25 -3 6 -5 1 -5 -13z"/>
<path d="M2202 5060 c0 -14 2 -19 5 -12 2 6 2 18 0 25 -3 6 -5 1 -5 -13z"/>
<path d="M2051 5034 c0 -11 3 -14 6 -6 3 7 2 16 -1 19 -3 4 -6 -2 -5 -13z"/>
<path d="M2091 5004 c0 -11 3 -14 6 -6 3 7 2 16 -1 19 -3 4 -6 -2 -5 -13z"/>
<path d="M1763 2963 c9 -2 25 -2 35 0 9 3 1 5 -18 5 -19 0 -27 -2 -17 -5z"/>
<path d="M2258 2963 c12 -2 30 -2 40 0 9 3 -1 5 -23 4 -22 0 -30 -2 -17 -4z"/>
<path d="M1698 2953 c6 -2 18 -2 25 0 6 3 1 5 -13 5 -14 0 -19 -2 -12 -5z"/>
<path d="M2338 2953 c7 -3 16 -2 19 1 4 3 -2 6 -13 5 -11 0 -14 -3 -6 -6z"/>
<path d="M1480 2879 c-17 -13 -18 -17 -5 -10 33 17 51 31 40 31 -5 0 -21 -10
-35 -21z"/>
<path d="M2540 2896 c0 -3 9 -10 20 -16 11 -6 20 -8 20 -6 0 3 -9 10 -20 16
-11 6 -20 8 -20 6z"/>
<path d="M1379 2803 l-34 -38 38 34 c20 19 37 36 37 38 0 8 -8 0 -41 -34z"/>
<path d="M1850 2410 c-24 -19 -24 -19 -2 -13 12 3 22 9 22 13 0 5 8 11 18 13
12 3 13 5 2 6 -8 0 -26 -8 -40 -19z"/>
<path d="M1935 2420 c3 -5 8 -10 11 -10 2 0 4 5 4 10 0 6 -5 10 -11 10 -5 0
-7 -4 -4 -10z"/>
<path d="M1990 2419 c0 -5 5 -7 10 -4 6 3 10 8 10 11 0 2 -4 4 -10 4 -5 0 -10
-5 -10 -11z"/>
<path d="M1794 2368 l-19 -23 23 19 c21 18 27 26 19 26 -2 0 -12 -10 -23 -22z"/>
<path d="M1661 2144 c0 -11 3 -14 6 -6 3 7 2 16 -1 19 -3 4 -6 -2 -5 -13z"/>
<path d="M1750 1835 c13 -14 26 -25 28 -25 3 0 -5 11 -18 25 -13 14 -26 25
-28 25 -3 0 5 -11 18 -25z"/>
<path d="M1875 1740 c3 -5 8 -10 11 -10 2 0 4 5 4 10 0 6 -5 10 -11 10 -5 0
-7 -4 -4 -10z"/>
<path d="M2100 1719 c0 -5 5 -7 10 -4 6 3 10 8 10 11 0 2 -4 4 -10 4 -5 0 -10
-5 -10 -11z"/>
<path d="M2043 1713 c9 -2 25 -2 35 0 9 3 1 5 -18 5 -19 0 -27 -2 -17 -5z"/>
<path d="M1440 350 c0 -9 90 -40 117 -40 32 0 8 20 -41 34 -63 19 -76 20 -76
6z"/>
</g>
</svg>
