<?xml version="1.0" standalone="no"?>
<!DOCTYPE svg PUBLIC "-//W3C//DTD SVG 20010904//EN"
 "http://www.w3.org/TR/2001/REC-SVG-20010904/DTD/svg10.dtd">
<svg version="1.0" xmlns="http://www.w3.org/2000/svg"
 width="536.000000pt" height="465.000000pt" viewBox="0 0 536.000000 465.000000"
 preserveAspectRatio="xMidYMid meet">

<g transform="translate(0.000000,465.000000) scale(0.100000,-0.100000)"
fill="#000000" stroke="none">
<path fill="#8f8bb4" d="M2414 4396 l-29 -26 34 17 c19 9 46 15 60 15 241 -11 315 -12 301 -2
-8 5 -55 10 -105 9 -49 -1 -122 2 -161 6 -67 7 -72 6 -100 -19z"/>
<path fill="#8f8bb4" d="M2915 4382 c17 -10 51 -28 76 -40 25 -12 61 -35 79 -52 18 -16 42
-32 52 -36 10 -3 18 -10 18 -16 0 -6 3 -8 6 -5 4 3 18 -3 32 -13 13 -11 29
-20 34 -20 5 0 21 -13 36 -28 15 -16 33 -27 40 -24 7 2 12 0 12 -5 0 -4 13
-14 29 -21 15 -7 47 -31 70 -54 22 -23 41 -37 41 -32 0 15 -58 71 -105 104
-63 42 -345 214 -393 238 -52 27 -68 29 -27 4z"/>
<path fill="#8f8bb4" d="M2810 4379 c0 -5 10 -9 21 -9 12 0 44 -16 70 -35 27 -19 58 -35 70
-35 11 0 29 -5 40 -10 10 -6 19 -7 19 -2 0 5 -17 14 -39 20 -21 7 -54 23 -74
36 -41 28 -107 50 -107 35z"/>
<path fill="#8f8bb4" d="M2356 4371 c-4 -5 -23 -12 -44 -16 -23 -4 -52 -19 -75 -41 -20 -19
-37 -30 -37 -23 0 7 -10 3 -23 -9 -13 -12 -31 -22 -40 -22 -9 0 -17 -5 -17
-11 0 -19 104 25 128 54 7 8 39 25 72 37 33 12 60 26 60 31 0 12 -17 12 -24 0z"/>
<path fill="#8f8bb4" d="M2063 4245 c-13 -9 -30 -30 -38 -48 -21 -42 -103 -107 -204 -161
-101 -55 -153 -96 -191 -151 -43 -63 -37 -65 11 -5 49 61 101 100 195 144 126
58 179 95 190 136 11 40 31 73 53 85 14 8 21 14 16 15 -6 0 -20 -7 -32 -15z"/>
<path fill="#8f8bb4" d="M3480 3970 c6 -11 13 -20 16 -20 2 0 0 9 -6 20 -6 11 -13 20 -16 20
-2 0 0 -9 6 -20z"/>
<path fill="#8f8bb4" d="M3511 3920 c14 -31 19 -36 19 -24 0 6 -7 19 -16 30 -14 18 -14 18 -3
-6z"/>
<path fill="#8f8bb4" d="M1571 3781 c-12 -22 -21 -46 -21 -53 1 -7 12 9 26 35 14 27 23 51 20
54 -2 3 -14 -13 -25 -36z"/>
<path fill="#8f8bb4" d="M2367 3793 c-11 -13 -17 -26 -14 -29 2 -3 12 7 21 22 23 33 17 39 -7
7z"/>
<path fill="#8f8bb4" d="M2428 3803 c-20 -24 -41 -64 -35 -69 2 -3 10 9 17 26 7 17 20 35 29
39 9 5 13 12 10 15 -3 4 -13 -2 -21 -11z"/>
<path fill="#8f8bb4" d="M3560 3806 c0 -2 8 -10 18 -17 15 -13 16 -12 3 4 -13 16 -21 21 -21
13z"/>
<path fill="#8f8bb4" d="M2460 3772 c0 -22 28 -81 62 -128 37 -52 99 -88 168 -98 42 -6 40 -5
-20 16 -92 32 -118 55 -167 144 -23 44 -43 73 -43 66z"/>
<path fill="#8f8bb4" d="M3615 3760 c10 -11 20 -20 23 -20 3 0 -3 9 -13 20 -10 11 -20 20 -23
20 -3 0 3 -9 13 -20z"/>
<path fill="#8f8bb4" d="M2286 3706 c-3 -13 -2 -35 3 -48 9 -22 10 -21 10 9 1 17 4 38 7 47 3
9 2 16 -4 16 -5 0 -13 -11 -16 -24z"/>
<path fill="#8f8bb4" d="M2571 3703 c28 -35 76 -74 119 -99 l45 -26 -32 29 c-17 15 -44 37
-59 48 -15 11 -39 30 -52 43 -29 26 -40 29 -21 5z"/>
<path fill="#8f8bb4" d="M2160 3689 c0 -5 5 -7 10 -4 6 3 10 8 10 11 0 2 -4 4 -10 4 -5 0 -10
-5 -10 -11z"/>
<path fill="#8f8bb4" d="M1551 3674 c0 -11 3 -14 6 -6 3 7 2 16 -1 19 -3 4 -6 -2 -5 -13z"/>
<path fill="#8f8bb4" d="M3620 3670 c-5 -32 1 -105 9 -114 11 -14 13 -229 2 -236 -11 -7 -20
-130 -9 -130 15 0 38 144 37 239 0 69 -34 276 -39 241z"/>
<path fill="#8f8bb4" d="M1530 3617 c0 -2 -5 -29 -11 -61 -6 -36 -7 -62 -1 -69 5 -7 19 -39
31 -72 13 -33 31 -73 41 -90 9 -16 25 -53 34 -81 18 -57 70 -144 85 -144 15 0
65 -70 67 -94 1 -11 11 -41 22 -66 12 -25 22 -61 22 -80 0 -19 5 -51 10 -70
14 -48 42 -280 37 -301 -3 -12 3 -19 19 -22 27 -5 28 -3 14 22 -5 10 -21 99
-36 197 -23 155 -25 197 -19 314 14 290 22 364 44 418 28 71 12 58 -35 -26
-37 -66 -37 -68 -36 -177 0 -60 -3 -128 -7 -150 l-7 -40 -28 43 c-16 26 -39
48 -57 54 -16 5 -30 14 -30 19 -1 5 -2 13 -3 19 0 5 -9 18 -18 29 -9 11 -14
22 -11 25 3 3 -2 12 -11 21 -9 9 -16 24 -16 33 0 9 -23 63 -51 121 -49 99 -51
106 -46 167 2 35 3 64 1 64 -2 0 -4 -1 -4 -3z"/>
<path fill="#8f8bb4" d="M2070 3578 c-15 -21 -17 -28 -6 -19 16 13 41 51 33 51 -2 0 -14 -15
-27 -32z"/>
<path fill="#8f8bb4" d="M1975 3570 c-9 -16 -13 -30 -11 -30 3 0 12 14 21 30 9 17 13 30 11
30 -3 0 -12 -13 -21 -30z"/>
<path fill="#8f8bb4" d="M2875 3573 c-44 -7 -90 -11 -101 -8 -14 3 -24 -1 -28 -12 -6 -14 3
-15 91 -10 54 4 138 2 186 -3 84 -8 93 -12 175 -65 154 -100 174 -128 170
-242 -1 -38 1 -144 6 -238 10 -222 -6 -370 -63 -559 -66 -219 -155 -351 -304
-454 -100 -68 -116 -75 -251 -107 -117 -28 -122 -28 -239 -17 -144 15 -182 30
-266 108 -36 32 -59 50 -54 39 20 -36 87 -96 134 -120 48 -25 162 -50 185 -41
18 7 45 -4 38 -15 -3 -5 -4 -9 -2 -9 6 0 212 38 273 50 67 13 123 42 204 105
84 64 148 130 171 174 19 38 40 61 40 44 2 -181 10 -284 21 -305 8 -14 24 -44
37 -67 12 -22 19 -41 16 -41 -4 0 28 -36 70 -80 45 -47 88 -103 104 -138 26
-54 28 -63 21 -132 -16 -157 -12 -195 41 -378 44 -153 50 -185 52 -275 l1
-102 8 75 c5 41 9 82 9 90 2 20 -43 197 -75 295 -24 72 -26 91 -23 216 1 76 6
135 10 133 30 -19 -43 110 -108 192 -153 192 -164 221 -164 446 0 112 3 134
23 180 13 30 32 77 42 107 17 51 18 53 49 47 l31 -5 -27 15 c-32 17 -31 15
-18 69 6 22 19 118 30 214 18 166 21 177 52 223 18 26 36 48 40 48 4 0 14 12
22 28 8 15 33 49 56 75 23 26 39 51 35 55 -3 4 -12 -1 -19 -11 -7 -9 -19 -17
-26 -17 -7 0 -11 -2 -8 -6 3 -3 -22 -33 -57 -67 -34 -34 -65 -69 -68 -77 -18
-47 -41 118 -39 276 1 97 -39 157 -138 206 -14 7 -46 30 -72 52 -44 36 -53 39
-120 43 -40 2 -77 5 -83 6 -5 2 -46 -3 -90 -10z"/>
<path fill="#8f8bb4" d="M1945 3519 c-4 -6 -5 -12 -2 -15 2 -3 7 2 10 11 7 17 1 20 -8 4z"/>
<path fill="#8f8bb4" d="M1925 3479 c-4 -6 -5 -12 -2 -15 2 -3 7 2 10 11 7 17 1 20 -8 4z"/>
<path fill="#8f8bb4" d="M2075 3457 c-86 -32 -125 -51 -125 -61 0 -4 7 -5 15 -2 109 42 273
53 321 21 28 -18 32 -6 6 18 -10 10 -35 17 -56 17 -23 0 -35 4 -31 10 4 6 22
8 43 5 28 -5 33 -4 22 4 -25 18 -130 11 -195 -12z"/>
<path fill="#8f8bb4" d="M2990 3460 c-14 -4 -43 -5 -66 -3 -57 7 -142 -36 -118 -59 3 -3 29 0
57 8 29 8 78 14 110 14 44 0 57 3 57 15 0 8 7 15 16 15 8 0 13 -4 10 -9 -3 -5
12 -11 34 -15 24 -4 72 -28 122 -62 l83 -56 -43 45 c-89 91 -185 131 -262 107z"/>
<path fill="#8f8bb4" d="M3045 3281 c-3 -6 -28 -10 -56 -9 -85 0 -157 -38 -189 -102 -23 -45
-24 -50 -10 -50 6 0 10 5 10 11 0 14 39 69 50 69 4 0 11 -10 15 -22 7 -22 8
-21 14 7 7 34 41 48 41 18 0 -25 19 -43 46 -43 27 0 41 34 23 56 -11 14 -9 15
17 12 26 -3 29 -7 29 -40 0 -20 3 -34 8 -31 4 2 7 17 7 34 0 17 5 29 13 29 18
0 88 -50 83 -59 -3 -4 10 -3 30 3 31 10 33 12 17 23 -10 7 -23 16 -29 20 -24
18 -77 43 -90 43 -11 0 -13 6 -9 20 6 20 -9 28 -20 11z m-67 -84 c2 -12 -3
-17 -17 -17 -12 0 -21 6 -21 13 0 31 32 34 38 4z"/>
<path fill="#8f8bb4" d="M2055 3260 c3 -5 10 -10 16 -10 5 0 9 5 9 10 0 6 -7 10 -16 10 -8 0
-12 -4 -9 -10z"/>
<path fill="#8f8bb4" d="M2149 3260 c-20 -3 -55 -16 -77 -28 -23 -12 -60 -31 -82 -43 -44 -23
-44 -39 1 -39 18 0 46 13 75 35 49 38 64 38 64 0 0 -13 5 -27 12 -31 7 -4 8
-3 4 5 -11 17 2 61 17 61 7 0 18 -13 24 -30 15 -40 58 -42 75 -5 15 34 33 26
32 -14 -1 -17 2 -28 7 -25 5 3 9 16 9 30 0 31 15 31 45 -2 27 -30 32 -50 13
-57 -8 -3 -6 -6 5 -6 45 -2 16 78 -40 110 -56 33 -133 49 -184 39z m90 -53
c12 -15 5 -27 -16 -27 -7 0 -13 9 -13 20 0 23 13 26 29 7z"/>
<path fill="#8f8bb4" d="M1680 2938 c0 -6 3 -9 6 -5 4 3 27 -8 52 -25 24 -17 43 -24 40 -17
-6 17 -66 59 -84 59 -8 0 -14 -5 -14 -12z"/>
<path fill="#8f8bb4" d="M3491 2924 c-18 -14 -36 -36 -42 -48 -9 -17 -5 -15 22 9 55 48 78 59
97 43 15 -12 16 -11 3 5 -19 24 -44 21 -80 -9z"/>
<path fill="#8f8bb4" d="M1671 2904 c0 -11 3 -14 6 -6 3 7 2 16 -1 19 -3 4 -6 -2 -5 -13z"/>
<path fill="#8f8bb4" d="M3612 2890 c0 -14 2 -19 5 -12 2 6 2 18 0 25 -3 6 -5 1 -5 -13z"/>
<path fill="#8f8bb4" d="M3532 2855 c0 -16 2 -22 5 -12 2 9 2 23 0 30 -3 6 -5 -1 -5 -18z"/>
<path fill="#8f8bb4" d="M3606 2774 c-3 -26 -4 -49 -2 -52 3 -2 8 17 11 43 4 25 5 48 3 51 -3
2 -8 -17 -12 -42z"/>
<path fill="#8f8bb4" d="M2649 2761 c-32 -32 -42 -66 -11 -38 12 11 36 17 65 17 51 0 70 16
42 37 -30 21 -64 15 -96 -16z"/>
<path fill="#8f8bb4" d="M2832 2761 c-1 -19 -10 -44 -19 -55 -17 -21 -17 -21 6 0 17 16 22 29
18 55 l-4 34 -1 -34z"/>
<path fill="#8f8bb4" d="M2434 2766 c-27 -20 -10 -31 44 -29 39 1 52 -3 75 -25 l29 -27 -22
38 c-34 57 -83 74 -126 43z"/>
<path fill="#8f8bb4" d="M2340 2749 c0 -28 34 -79 53 -79 6 0 3 6 -6 13 -10 7 -24 30 -32 52
-12 34 -14 36 -15 14z"/>
<path fill="#8f8bb4" d="M1756 2745 c-9 -26 -7 -32 5 -12 6 10 9 21 6 23 -2 3 -7 -2 -11 -11z"/>
<path fill="#8f8bb4" d="M1661 2734 c0 -11 3 -14 6 -6 3 7 2 16 -1 19 -3 4 -6 -2 -5 -13z"/>
<path fill="#8f8bb4" d="M3592 2690 c0 -14 2 -19 5 -12 2 6 2 18 0 25 -3 6 -5 1 -5 -13z"/>
<path fill="#8f8bb4" d="M1760 2691 c0 -13 48 -46 56 -38 3 2 -9 15 -25 27 -17 12 -31 17 -31
11z"/>
<path fill="#8f8bb4" d="M3479 2653 c-8 -9 -32 -24 -54 -34 -22 -10 -32 -19 -22 -19 27 0 75
27 87 50 13 24 7 26 -11 3z"/>
<path fill="#8f8bb4" d="M1723 2614 c16 -32 35 -44 65 -44 14 1 13 3 -3 12 -11 6 -33 22 -49
37 l-28 26 15 -31z"/>
<path fill="#8f8bb4" d="M3550 2560 c-7 -17 -10 -33 -8 -36 3 -3 11 9 17 27 6 18 9 34 7 36
-2 2 -9 -10 -16 -27z"/>
<path fill="#8f8bb4" d="M2565 2419 c-77 -4 -166 -13 -198 -19 -48 -9 -63 -9 -89 4 -36 18
-38 19 -38 8 0 -31 81 -32 390 -5 36 3 108 0 160 -7 87 -12 99 -11 130 5 19
10 30 20 23 22 -6 2 -26 -3 -43 -12 -29 -15 -38 -15 -107 -1 -41 9 -78 15 -82
15 -3 -1 -69 -6 -146 -10z"/>
<path fill="#8f8bb4" d="M2074 2137 c3 -11 9 -29 12 -42 4 -15 11 -22 20 -18 8 3 22 -1 32 -8
14 -11 -6 14 -62 76 -5 6 -6 3 -2 -8z"/>
<path fill="#8f8bb4" d="M2110 1999 c20 -71 90 -263 90 -247 0 9 -12 49 -26 90 -14 40 -33 96
-41 123 -17 56 -38 87 -23 34z"/>
<path fill="#8f8bb4" d="M3271 1775 c0 -16 6 -65 14 -108 19 -102 19 -229 -1 -298 -27 -92
-186 -365 -238 -408 -10 -8 -22 -24 -28 -35 -7 -14 2 -9 27 14 40 38 141 187
204 303 46 84 91 229 91 295 0 44 1 45 18 29 27 -28 22 -195 -10 -317 -26
-100 -28 -170 -9 -270 5 -30 15 -86 21 -125 6 -38 19 -88 30 -110 25 -53 25
-35 0 50 -45 153 -57 368 -27 470 10 33 21 106 24 161 6 111 12 90 -73 269
-18 39 -35 79 -37 90 -3 13 -5 10 -6 -10z"/>
<path fill="#8f8bb4" d="M2113 1698 c-17 -35 -22 -67 -12 -74 5 -3 7 -20 3 -38 -9 -48 38
-213 87 -308 23 -43 62 -100 86 -126 l43 -47 -52 72 c-59 80 -104 177 -118
255 -6 28 -10 104 -10 169 0 118 -6 140 -27 97z"/>
<path fill="#8f8bb4" d="M3410 1621 c0 -6 4 -13 10 -16 6 -3 7 1 4 9 -7 18 -14 21 -14 7z"/>
<path fill="#8f8bb4" d="M2045 1564 c-20 -46 -17 -81 21 -289 15 -82 30 -177 34 -210 l8 -60
-3 65 c-1 36 -15 148 -30 249 -24 159 -27 190 -16 229 15 57 7 66 -14 16z"/>
<path fill="#8f8bb4" d="M1967 1430 c-3 -19 -13 -89 -22 -155 -8 -66 -33 -196 -55 -289 -22
-93 -40 -188 -39 -210 1 -33 4 -26 14 34 7 41 27 134 44 205 33 142 75 407 68
433 -2 9 -7 1 -10 -18z"/>
<path fill="#8f8bb4" d="M3560 1419 c0 -28 33 -69 55 -69 7 0 22 -3 32 -6 10 -3 3 3 -15 15
-18 11 -41 35 -52 53 -20 32 -20 33 -20 7z"/>
<path fill="#8f8bb4" d="M3541 1294 c0 -11 3 -14 6 -6 3 7 2 16 -1 19 -3 4 -6 -2 -5 -13z"/>
<path fill="#8f8bb4" d="M3808 1278 c5 -5 16 -8 23 -6 8 3 3 7 -10 11 -17 4 -21 3 -13 -5z"/>
<path fill="#8f8bb4" d="M3620 1275 c0 -2 17 -13 38 -24 21 -11 50 -31 63 -46 13 -14 33 -31
44 -37 11 -6 2 8 -20 32 -43 45 -125 95 -125 75z"/>
<path fill="#8f8bb4" d="M3552 1240 c0 -14 2 -19 5 -12 2 6 2 18 0 25 -3 6 -5 1 -5 -13z"/>
<path fill="#8f8bb4" d="M3872 1253 c3 -9 -27 -55 -59 -89 l-21 -23 81 -42 c45 -23 85 -44 89
-48 8 -8 52 -212 66 -311 7 -41 16 -140 22 -220 6 -80 23 -197 36 -260 14 -63
31 -148 37 -187 6 -40 15 -73 19 -73 14 0 9 41 -28 215 -24 115 -40 230 -50
355 -9 114 -27 246 -47 344 l-32 159 -40 12 c-64 19 -126 55 -117 69 58 91 54
88 103 81 25 -3 85 -21 134 -41 48 -19 89 -33 92 -31 6 6 -129 61 -199 81 -61
17 -89 20 -86 9z"/>
<path fill="#8f8bb4" d="M1750 1240 c-12 -8 -11 -10 6 -10 37 0 47 -24 41 -90 -6 -57 -25
-120 -61 -202 -25 -58 -11 -45 17 15 45 99 58 152 55 224 -3 59 -6 68 -23 71
-11 1 -27 -2 -35 -8z"/>
<path fill="#8f8bb4" d="M3787 1243 c-4 -3 -7 -11 -7 -17 0 -6 5 -5 12 2 6 6 9 14 7 17 -3 3
-9 2 -12 -2z"/>
<path fill="#8f8bb4" d="M1675 1216 c-17 -7 -37 -21 -45 -32 -12 -14 -9 -14 14 4 16 12 36 22
45 22 9 0 23 5 31 10 23 15 -8 12 -45 -4z"/>
<path fill="#8f8bb4" d="M3371 1204 c0 -11 3 -14 6 -6 3 7 2 16 -1 19 -3 4 -6 -2 -5 -13z"/>
<path fill="#8f8bb4" d="M3561 1194 c0 -11 3 -14 6 -6 3 7 2 16 -1 19 -3 4 -6 -2 -5 -13z"/>
<path fill="#8f8bb4" d="M3680 1174 c0 -10 5 -37 10 -59 35 -144 80 -659 59 -679 -8 -8 -209
20 -218 30 -5 5 -14 26 -20 46 -7 20 -27 56 -45 80 -18 24 -36 53 -40 66 -4
12 -14 22 -21 22 -8 0 -45 37 -83 83 -84 100 -177 187 -201 187 -10 0 -32 -18
-50 -40 -31 -39 -30 -57 2 -22 31 35 78 20 143 -45 33 -33 71 -74 85 -93 15
-19 52 -61 84 -92 32 -32 54 -62 50 -68 -4 -7 -48 29 -110 89 -68 65 -114 101
-134 106 -17 4 -31 13 -31 21 0 8 -5 14 -10 14 -6 0 -15 11 -22 25 -6 13 -14
22 -18 20 -29 -18 -69 -865 -42 -865 5 0 12 100 16 223 8 280 30 575 44 589
22 22 25 -50 20 -431 -5 -320 -4 -348 3 -166 5 121 11 226 14 234 4 10 22 12
83 7 42 -4 89 -9 105 -12 15 -3 27 -1 27 4 0 5 -37 12 -82 16 -140 11 -128 -4
-128 162 0 78 4 145 9 148 5 3 37 -20 72 -52 150 -137 160 -153 165 -272 1
-41 6 -159 9 -262 5 -115 11 -188 17 -188 7 0 8 93 3 276 -4 152 -8 282 -9
289 0 8 4 14 9 15 17 2 44 -139 53 -275 l9 -130 2 138 c1 127 2 138 19 133 9
-2 63 -10 120 -16 56 -7 104 -15 106 -19 2 -3 12 -97 22 -208 9 -112 21 -203
26 -203 12 0 10 64 -6 235 -8 83 -20 238 -26 345 -14 262 -26 363 -56 494 -25
110 -34 137 -34 100z"/>
<path fill="#8f8bb4" d="M1524 1119 c-21 -23 -30 -37 -19 -31 25 13 70 60 64 67 -3 2 -23 -14
-45 -36z"/>
<path fill="#8f8bb4" d="M4198 1143 c7 -3 16 -2 19 1 4 3 -2 6 -13 5 -11 0 -14 -3 -6 -6z"/>
<path fill="#8f8bb4" d="M1271 1043 c-102 -129 -123 -171 -129 -262 -3 -58 -20 -127 -74 -294
-38 -120 -68 -221 -65 -223 3 -3 37 93 76 212 58 175 73 230 75 289 3 89 29
146 117 255 34 41 65 83 70 93 21 38 -4 13 -70 -70z"/>
<path fill="#8f8bb4" d="M4330 1074 c98 -64 195 -115 228 -119 31 -4 30 -4 -63 46 -44 23 -98
54 -120 69 -37 25 -108 60 -124 60 -3 0 33 -25 79 -56z"/>
<path fill="#8f8bb4" d="M2230 1103 c0 -4 5 -15 10 -23 8 -13 10 -13 10 2 0 9 -4 20 -10 23
-5 3 -10 3 -10 -2z"/>
<path fill="#8f8bb4" d="M4234 1101 c4 -6 16 -16 28 -22 15 -8 18 -8 14 0 -4 6 -16 16 -28 22
-15 8 -18 8 -14 0z"/>
<path fill="#8f8bb4" d="M3372 1070 c0 -19 2 -27 5 -17 2 9 2 25 0 35 -3 9 -5 1 -5 -18z"/>
<path fill="#8f8bb4" d="M1385 1064 c-4 -16 -11 -39 -16 -52 -6 -15 -6 -21 1 -17 11 7 34 85
26 92 -3 3 -8 -8 -11 -23z"/>
<path fill="#8f8bb4" d="M3752 1070 c0 -14 2 -19 5 -12 2 6 2 18 0 25 -3 6 -5 1 -5 -13z"/>
<path fill="#8f8bb4" d="M4209 1053 l-24 -26 27 19 c15 10 28 22 28 27 0 12 -5 8 -31 -20z"/>
<path fill="#8f8bb4" d="M984 1045 c-9 -14 -15 -28 -12 -30 2 -2 12 9 22 25 21 36 13 40 -10
5z"/>
<path fill="#8f8bb4" d="M3764 1020 c4 -14 10 -54 16 -90 5 -36 14 -96 20 -135 5 -38 17 -176
26 -305 8 -129 17 -236 20 -239 2 -2 4 32 4 77 0 91 0 91 65 67 22 -8 56 -14
75 -14 28 1 22 3 -26 14 -34 7 -76 21 -93 29 -31 16 -31 17 -31 97 0 44 -5
123 -11 175 -6 52 -9 98 -5 101 3 4 42 -6 87 -21 44 -15 83 -25 86 -22 3 2
-37 18 -88 34 l-93 29 -17 95 c-9 53 -22 104 -29 114 -10 17 -11 16 -6 -6z"/>
<path fill="#8f8bb4" d="M3381 1022 c-2 -24 26 -77 50 -97 l24 -20 -22 26 c-13 13 -29 43 -37
64 -8 22 -15 34 -15 27z"/>
<path fill="#8f8bb4" d="M4280 1005 c0 -11 11 -74 25 -140 22 -105 25 -144 25 -325 0 -113 4
-241 9 -285 6 -44 13 -119 17 -168 3 -48 11 -87 16 -87 7 0 8 21 4 57 -18 171
-26 344 -25 520 1 127 -3 211 -10 233 -6 19 -19 69 -27 110 -17 80 -33 121
-34 85z"/>
<path fill="#8f8bb4" d="M2248 933 c-25 -38 -65 -102 -88 -143 -23 -41 -45 -77 -49 -80 -4 -3
-12 -12 -17 -20 -24 -40 -176 -173 -206 -181 l-33 -9 37 5 38 4 -4 -157 c-2
-86 -9 -199 -15 -251 -11 -82 -10 -114 3 -100 8 9 26 241 26 345 1 155 8 180
71 236 29 25 58 44 66 41 12 -5 15 -1 17 30 1 6 8 19 17 27 9 8 31 42 49 75
70 126 83 136 114 83 17 -28 18 -45 12 -172 -4 -78 -7 -191 -6 -253 0 -61 -4
-140 -9 -175 -19 -118 -25 -238 -12 -238 7 0 11 19 11 48 0 26 7 97 15 157 8
61 15 162 15 225 0 63 5 158 10 210 17 156 16 161 -18 209 -18 24 -29 49 -25
55 34 60 75 61 133 4 47 -47 82 -109 72 -125 -4 -6 -21 -13 -37 -15 l-30 -3
31 -17 c26 -14 34 -28 55 -104 14 -52 39 -112 62 -146 20 -32 37 -62 37 -67 0
-5 6 -14 14 -21 8 -6 17 -21 19 -33 4 -20 4 -19 5 3 1 14 -19 75 -43 135 -43
106 -61 133 -30 45 8 -24 13 -45 10 -48 -10 -11 -34 34 -54 103 -29 102 -36
145 -21 145 9 0 10 11 6 35 -8 42 6 46 43 13 14 -13 1 5 -29 38 -63 71 -102
105 -145 126 -66 34 -68 33 -117 -39z"/>
<path fill="#8f8bb4" d="M4051 974 c0 -11 3 -14 6 -6 3 7 2 16 -1 19 -3 4 -6 -2 -5 -13z"/>
<path fill="#8f8bb4" d="M1458 973 c7 -3 16 -2 19 1 4 3 -2 6 -13 5 -11 0 -14 -3 -6 -6z"/>
<path fill="#8f8bb4" d="M1251 895 c-42 -75 -62 -151 -60 -235 1 -19 7 6 13 56 11 75 20 104
55 168 24 42 41 79 39 81 -2 3 -23 -29 -47 -70z"/>
<path fill="#8f8bb4" d="M4340 969 c0 -4 12 -38 26 -75 15 -38 33 -96 40 -129 l13 -60 -6 54
c-6 58 -30 139 -57 187 -8 16 -15 26 -16 23z"/>
<path fill="#8f8bb4" d="M4092 870 c0 -47 8 -137 18 -200 11 -63 17 -90 15 -60 -3 30 -10 114
-16 185 -13 165 -17 181 -17 75z"/>
<path fill="#8f8bb4" d="M911 852 c-18 -48 -40 -92 -48 -99 -8 -6 -13 -16 -10 -21 3 -4 15
-44 27 -88 12 -43 25 -83 31 -89 14 -14 11 11 -12 96 l-21 78 36 102 c20 56
35 103 33 105 -2 2 -18 -35 -36 -84z"/>
<path fill="#8f8bb4" d="M2092 890 c0 -19 2 -27 5 -17 2 9 2 25 0 35 -3 9 -5 1 -5 -18z"/>
<path fill="#8f8bb4" d="M692 890 c0 -14 2 -19 5 -12 2 6 2 18 0 25 -3 6 -5 1 -5 -13z"/>
<path fill="#8f8bb4" d="M3468 898 c5 -5 16 -8 23 -6 8 3 3 7 -10 11 -17 4 -21 3 -13 -5z"/>
<path fill="#8f8bb4" d="M4710 886 c0 -2 8 -10 18 -17 15 -13 16 -12 3 4 -13 16 -21 21 -21
13z"/>
<path fill="#8f8bb4" d="M832 830 c0 -19 2 -27 5 -17 2 9 2 25 0 35 -3 9 -5 1 -5 -18z"/>
<path fill="#8f8bb4" d="M4615 847 c-7 -7 -5 -22 8 -49 28 -56 33 -159 20 -383 -14 -244 -16
-415 -4 -415 4 0 11 82 14 183 4 100 10 259 13 353 5 124 3 185 -6 225 -17 71
-32 100 -45 86z"/>
<path fill="#8f8bb4" d="M4785 818 c22 -26 41 -45 44 -42 3 2 -15 24 -38 47 l-44 42 38 -47z"/>
<path fill="#8f8bb4" d="M2370 835 c0 -21 17 -45 32 -45 13 0 9 13 -12 40 -18 23 -20 24 -20
5z"/>
<path fill="#8f8bb4" d="M693 805 c0 -22 2 -30 4 -17 2 12 2 30 0 40 -3 9 -5 -1 -4 -23z"/>
<path fill="#8f8bb4" d="M3658 823 c7 -3 16 -2 19 1 4 3 -2 6 -13 5 -11 0 -14 -3 -6 -6z"/>
<path fill="#8f8bb4" d="M4685 778 c4 -18 14 -53 23 -78 18 -54 20 -286 3 -395 -6 -38 -10
-124 -9 -190 1 -84 3 -96 5 -40 1 44 12 171 24 283 18 167 20 215 11 269 -6
37 -15 69 -20 72 -5 3 -15 30 -22 59 -13 56 -26 74 -15 20z"/>
<path fill="#8f8bb4" d="M2351 755 c12 -34 4 -446 -11 -580 -5 -44 -11 -101 -14 -127 -3 -28
-2 -48 4 -48 6 0 10 15 10 34 0 19 6 87 14 153 8 65 17 215 20 334 6 207 5
218 -14 240 l-20 24 11 -30z"/>
<path fill="#8f8bb4" d="M661 744 c0 -11 3 -14 6 -6 3 7 2 16 -1 19 -3 4 -6 -2 -5 -13z"/>
<path fill="#8f8bb4" d="M4901 710 c13 -19 43 -71 66 -115 23 -44 43 -76 43 -72 0 22 -82 175
-106 197 l-28 25 25 -35z"/>
<path fill="#8f8bb4" d="M673 660 c0 -36 2 -50 4 -32 2 17 2 47 0 65 -2 17 -4 3 -4 -33z"/>
<path fill="#8f8bb4" d="M2956 697 c-8 -12 -38 -72 -66 -132 -28 -61 -64 -136 -81 -167 -17
-32 -28 -58 -26 -58 11 0 65 98 91 165 16 39 45 103 66 143 37 72 44 92 16 49z"/>
<path fill="#8f8bb4" d="M4846 687 c3 -10 9 -15 12 -12 3 3 0 11 -7 18 -10 9 -11 8 -5 -6z"/>
<path fill="#8f8bb4" d="M2550 685 c0 -5 5 -17 10 -25 5 -8 10 -10 10 -5 0 6 -5 17 -10 25 -5
8 -10 11 -10 5z"/>
<path fill="#8f8bb4" d="M4443 635 c0 -27 2 -38 4 -22 2 15 2 37 0 50 -2 12 -4 0 -4 -28z"/>
<path fill="#8f8bb4" d="M1371 555 c-46 -88 -54 -114 -59 -173 -3 -50 -1 -71 8 -77 9 -5 11
-4 6 4 -16 26 15 156 59 250 25 52 44 95 43 97 -2 1 -28 -44 -57 -101z"/>
<path fill="#8f8bb4" d="M4877 630 c9 -17 28 -43 41 -58 13 -15 6 -1 -14 31 -38 59 -58 79
-27 27z"/>
<path fill="#8f8bb4" d="M2570 634 c0 -6 7 -19 16 -30 14 -18 14 -18 3 6 -14 31 -19 36 -19
24z"/>
<path fill="#8f8bb4" d="M4396 578 c-3 -35 -1 -103 5 -153 6 -49 15 -121 19 -160 l7 -70 1 55
c1 30 -3 82 -8 115 -6 33 -11 108 -11 168 0 59 -2 107 -3 107 -2 0 -6 -28 -10
-62z"/>
<path fill="#8f8bb4" d="M2857 610 c-15 -15 -77 -160 -77 -181 0 -4 -19 -35 -42 -70 l-43 -64
-3 -147 c-1 -107 1 -148 9 -148 9 0 10 35 6 134 l-6 133 41 69 c37 63 141 285
135 289 -1 2 -10 -6 -20 -15z"/>
<path fill="#8f8bb4" d="M1161 533 c-13 -48 -25 -95 -28 -103 -3 -12 -2 -12 6 1 13 21 53 167
49 180 -2 5 -14 -30 -27 -78z"/>
<path fill="#8f8bb4" d="M1671 460 c-13 -88 -21 -164 -19 -170 2 -6 14 63 27 154 13 92 22
168 19 171 -3 3 -15 -67 -27 -155z"/>
<path fill="#8f8bb4" d="M2600 578 c0 -11 30 -78 35 -78 3 0 -2 17 -10 37 -15 36 -25 52 -25
41z"/>
<path fill="#8f8bb4" d="M2755 554 c-9 -14 -15 -27 -13 -30 2 -2 12 10 22 26 21 37 15 40 -9
4z"/>
<path fill="#8f8bb4" d="M4432 560 c0 -14 2 -19 5 -12 2 6 2 18 0 25 -3 6 -5 1 -5 -13z"/>
<path fill="#8f8bb4" d="M2010 540 c-10 -18 -16 -97 -21 -280 -4 -140 -6 -256 -4 -258 9 -9
18 145 19 308 1 133 5 191 14 208 7 13 12 28 9 35 -2 7 -10 1 -17 -13z"/>
<path fill="#8f8bb4" d="M2392 540 c0 -14 2 -19 5 -12 2 6 2 18 0 25 -3 6 -5 1 -5 -13z"/>
<path fill="#8f8bb4" d="M4940 536 c0 -2 8 -10 18 -17 15 -13 16 -12 3 4 -13 16 -21 21 -21
13z"/>
<path fill="#8f8bb4" d="M902 505 c0 -16 2 -22 5 -12 2 9 2 23 0 30 -3 6 -5 -1 -5 -18z"/>
<path fill="#8f8bb4" d="M2058 523 c6 -2 18 -2 25 0 6 3 1 5 -13 5 -14 0 -19 -2 -12 -5z"/>
<path fill="#8f8bb4" d="M511 504 c0 -11 3 -14 6 -6 3 7 2 16 -1 19 -3 4 -6 -2 -5 -13z"/>
<path fill="#8f8bb4" d="M4101 500 c0 -14 11 -61 24 -105 22 -72 24 -75 19 -30 -4 28 -10 54
-15 60 -5 5 -9 20 -10 35 0 14 -4 34 -9 45 -8 18 -9 18 -9 -5z"/>
<path fill="#8f8bb4" d="M4578 493 c6 -2 18 -2 25 0 6 3 1 5 -13 5 -14 0 -19 -2 -12 -5z"/>
<path fill="#8f8bb4" d="M4460 481 c-19 -3 -30 -9 -25 -12 6 -4 28 -1 50 6 43 14 32 16 -25 6z"/>
<path fill="#8f8bb4" d="M1406 465 c-9 -26 -7 -32 5 -12 6 10 9 21 6 23 -2 3 -7 -2 -11 -11z"/>
<path fill="#8f8bb4" d="M2390 470 c0 -9 85 -34 99 -29 6 2 -14 11 -44 20 -30 9 -55 13 -55 9z"/>
<path fill="#8f8bb4" d="M4185 470 c28 -5 68 -8 90 -8 35 1 33 2 -15 8 -30 5 -71 8 -90 8 -28
-1 -25 -2 15 -8z"/>
<path fill="#8f8bb4" d="M1601 454 c0 -11 3 -14 6 -6 3 7 2 16 -1 19 -3 4 -6 -2 -5 -13z"/>
<path fill="#8f8bb4" d="M2663 463 c-28 -11 -10 -18 38 -14 35 2 47 6 38 12 -15 9 -56 11 -76
2z"/>
<path fill="#8f8bb4" d="M893 415 c0 -27 2 -38 4 -22 2 15 2 37 0 50 -2 12 -4 0 -4 -28z"/>
<path fill="#8f8bb4" d="M2965 440 l-20 -9 20 1 c11 0 31 4 45 8 l25 8 -25 0 c-14 0 -34 -3
-45 -8z"/>
<path fill="#8f8bb4" d="M469 418 c-7 -13 -19 -34 -27 -48 -14 -24 -13 -24 3 -5 20 24 48 75
41 75 -3 0 -11 -10 -17 -22z"/>
<path fill="#8f8bb4" d="M1377 380 c-27 -94 -28 -119 -2 -41 14 41 24 79 22 85 -2 6 -11 -14
-20 -44z"/>
<path fill="#8f8bb4" d="M2893 423 c9 -2 25 -2 35 0 9 3 1 5 -18 5 -19 0 -27 -2 -17 -5z"/>
<path fill="#8f8bb4" d="M1567 259 c-28 -173 -34 -259 -17 -259 6 0 10 28 10 65 0 36 9 126
21 200 11 75 19 140 17 147 -2 6 -16 -63 -31 -153z"/>
<path fill="#8f8bb4" d="M4860 410 c0 -5 13 -16 29 -24 25 -13 101 -103 101 -120 0 -9 130
-226 136 -226 3 0 -8 24 -24 53 -17 28 -51 90 -77 137 -25 47 -57 99 -70 116
-25 33 -95 80 -95 64z"/>
<path fill="#8f8bb4" d="M1101 337 c-35 -107 -34 -105 -23 -87 14 20 55 150 50 155 -2 3 -15
-28 -27 -68z"/>
<path fill="#8f8bb4" d="M4268 393 c7 -3 16 -2 19 1 4 3 -2 6 -13 5 -11 0 -14 -3 -6 -6z"/>
<path fill="#8f8bb4" d="M691 359 c-6 -18 -9 -34 -7 -36 2 -2 9 10 15 28 6 18 9 34 7 36 -2 2
-9 -10 -15 -28z"/>
<path fill="#8f8bb4" d="M2208 383 c7 -3 16 -2 19 1 4 3 -2 6 -13 5 -11 0 -14 -3 -6 -6z"/>
<path fill="#8f8bb4" d="M2988 373 c7 -3 16 -2 19 1 4 3 -2 6 -13 5 -11 0 -14 -3 -6 -6z"/>
<path fill="#8f8bb4" d="M3870 359 c0 -5 9 -9 20 -9 11 0 20 2 20 4 0 2 -9 6 -20 9 -11 3 -20
1 -20 -4z"/>
<path fill="#8f8bb4" d="M3534 265 c0 -50 1 -71 3 -48 2 23 2 64 0 90 -2 26 -3 8 -3 -42z"/>
<path fill="#8f8bb4" d="M882 315 c0 -16 2 -22 5 -12 2 9 2 23 0 30 -3 6 -5 -1 -5 -18z"/>
<path fill="#8f8bb4" d="M3872 295 c0 -16 2 -22 5 -12 2 9 2 23 0 30 -3 6 -5 -1 -5 -18z"/>
<path fill="#8f8bb4" d="M663 279 c-7 -18 -11 -35 -8 -37 6 -6 27 48 23 60 -2 5 -9 -6 -15
-23z"/>
<path fill="#8f8bb4" d="M577 239 c18 -19 47 -42 65 -52 32 -17 32 -17 8 0 -14 10 -43 34 -65
53 l-40 34 32 -35z"/>
<path fill="#8f8bb4" d="M872 240 c0 -19 2 -27 5 -17 2 9 2 25 0 35 -3 9 -5 1 -5 -18z"/>
<path fill="#8f8bb4" d="M3883 225 c0 -22 2 -30 4 -17 2 12 2 30 0 40 -3 9 -5 -1 -4 -23z"/>
<path fill="#8f8bb4" d="M1335 240 c3 -6 -1 -49 -9 -98 -9 -48 -18 -99 -21 -114 -2 -16 -1
-28 3 -28 10 0 42 158 42 209 0 22 -5 41 -11 41 -5 0 -7 -5 -4 -10z"/>
<path fill="#8f8bb4" d="M1642 230 c0 -14 2 -19 5 -12 2 6 2 18 0 25 -3 6 -5 1 -5 -13z"/>
<path fill="#8f8bb4" d="M3852 205 c0 -16 2 -22 5 -12 2 9 2 23 0 30 -3 6 -5 -1 -5 -18z"/>
<path fill="#8f8bb4" d="M1622 127 c-12 -80 -15 -134 -8 -126 7 7 28 178 24 191 -3 7 -10 -22
-16 -65z"/>
<path fill="#8f8bb4" d="M4431 119 c1 -35 5 -77 10 -94 4 -18 6 6 2 60 -6 106 -14 126 -12 34z"/>
<path fill="#8f8bb4" d="M1081 154 c0 -11 3 -14 6 -6 3 7 2 16 -1 19 -3 4 -6 -2 -5 -13z"/>
<path fill="#8f8bb4" d="M3533 130 c0 -25 2 -35 4 -22 2 12 2 32 0 45 -2 12 -4 2 -4 -23z"/>
<path fill="#8f8bb4" d="M3862 130 c0 -25 3 -65 7 -90 l8 -45 1 40 c0 22 -3 63 -8 90 l-7 50
-1 -45z"/>
<path fill="#8f8bb4" d="M3893 125 c0 -27 2 -38 4 -22 2 15 2 37 0 50 -2 12 -4 0 -4 -28z"/>
<path fill="#8f8bb4" d="M4859 120 c-6 -45 -4 -58 7 -48 3 3 4 26 2 49 l-3 44 -6 -45z"/>
<path fill="#8f8bb4" d="M710 146 c0 -3 9 -10 20 -16 11 -6 20 -8 20 -6 0 3 -9 10 -20 16 -11
6 -20 8 -20 6z"/>
<path fill="#8f8bb4" d="M906 104 c-4 -14 -5 -28 -3 -31 3 -2 8 8 11 23 4 14 5 28 3 31 -3 2
-8 -8 -11 -23z"/>
<path fill="#8f8bb4" d="M3513 35 c0 -22 2 -30 4 -17 2 12 2 30 0 40 -3 9 -5 -1 -4 -23z"/>
<path fill="#8f8bb4" d="M4891 33 c11 -34 19 -42 19 -20 0 7 -7 22 -15 33 -13 17 -14 16 -4
-13z"/>
<path fill="#8f8bb4" d="M1052 25 c0 -17 2 -22 5 -12 2 9 2 23 0 30 -3 6 -5 -1 -5 -18z"/>
</g>
</svg>
