<?xml version="1.0" standalone="no"?>
<svg xmlns:xlink="http://www.w3.org/1999/xlink" id="wave" style="transform:rotate(0deg); transition: 0.3s" viewBox="0 0 1440 490" version="1.1" xmlns="http://www.w3.org/2000/svg"><defs><linearGradient id="sw-gradient-0" x1="0" x2="0" y1="1" y2="0"><stop stop-color="rgba(1, 0, 38, 1)" offset="0%"/><stop stop-color="rgba(100.028, 113.891, 171.079, 1)" offset="100%"/></linearGradient></defs><path style="transform:translate(0, 0px); opacity:1" fill="url(#sw-gradient-0)" d="M0,343L34.3,302.2C68.6,261,137,180,206,171.5C274.3,163,343,229,411,277.7C480,327,549,359,617,343C685.7,327,754,261,823,269.5C891.4,278,960,359,1029,351.2C1097.1,343,1166,245,1234,228.7C1302.9,212,1371,278,1440,261.3C1508.6,245,1577,147,1646,122.5C1714.3,98,1783,147,1851,179.7C1920,212,1989,229,2057,228.7C2125.7,229,2194,212,2263,204.2C2331.4,196,2400,196,2469,220.5C2537.1,245,2606,294,2674,294C2742.9,294,2811,245,2880,261.3C2948.6,278,3017,359,3086,375.7C3154.3,392,3223,343,3291,277.7C3360,212,3429,131,3497,81.7C3565.7,33,3634,16,3703,8.2C3771.4,0,3840,0,3909,65.3C3977.1,131,4046,261,4114,261.3C4182.9,261,4251,131,4320,138.8C4388.6,147,4457,294,4526,351.2C4594.3,408,4663,376,4731,367.5C4800,359,4869,376,4903,383.8L4937.1,392L4937.1,490L4902.9,490C4868.6,490,4800,490,4731,490C4662.9,490,4594,490,4526,490C4457.1,490,4389,490,4320,490C4251.4,490,4183,490,4114,490C4045.7,490,3977,490,3909,490C3840,490,3771,490,3703,490C3634.3,490,3566,490,3497,490C3428.6,490,3360,490,3291,490C3222.9,490,3154,490,3086,490C3017.1,490,2949,490,2880,490C2811.4,490,2743,490,2674,490C2605.7,490,2537,490,2469,490C2400,490,2331,490,2263,490C2194.3,490,2126,490,2057,490C1988.6,490,1920,490,1851,490C1782.9,490,1714,490,1646,490C1577.1,490,1509,490,1440,490C1371.4,490,1303,490,1234,490C1165.7,490,1097,490,1029,490C960,490,891,490,823,490C754.3,490,686,490,617,490C548.6,490,480,490,411,490C342.9,490,274,490,206,490C137.1,490,69,490,34,490L0,490Z"/></svg>