<?xml version="1.0" standalone="no"?>
<!DOCTYPE svg PUBLIC "-//W3C//DTD SVG 20010904//EN"
 "http://www.w3.org/TR/2001/REC-SVG-20010904/DTD/svg10.dtd">
<svg version="1.0" xmlns="http://www.w3.org/2000/svg"
 width="281.000000pt" height="281.000000pt" viewBox="0 0 281.000000 281.000000"
 preserveAspectRatio="xMidYMid meet">

<g transform="translate(0.000000,281.000000) scale(0.100000,-0.100000)"
fill="#8f8bb4" stroke="none">
<path d="M395 2408 c-3 -7 -4 -461 -3 -1008 l3 -995 995 -3 c829 -2 997 0
1005 11 7 9 9 358 7 1010 l-2 997 -1000 0 c-791 0 -1002 -3 -1005 -12z m595
-178 l0 -150 -280 0 -280 0 0 150 0 150 280 0 280 0 0 -150z m1378 83 l3 -63
-453 -2 c-395 -3 -453 -5 -453 -18 0 -13 59 -16 450 -20 l450 -5 3 -62 3 -63
-671 0 -670 0 0 150 0 150 668 -2 667 -3 3 -62z m-3 -1073 l0 -795 -967 -3
-968 -2 0 800 0 800 968 -2 967 -3 0 -795z"/>
<path d="M540 2230 l0 -40 40 0 40 0 0 40 0 40 -40 0 -40 0 0 -40z"/>
<path d="M670 2230 l0 -40 40 0 40 0 0 40 0 40 -40 0 -40 0 0 -40z"/>
<path d="M800 2230 l0 -40 40 0 40 0 0 40 0 40 -40 0 -40 0 0 -40z"/>
<path d="M560 1820 c0 -73 2 -80 20 -80 18 0 20 7 20 60 l0 60 53 0 c56 0 84
11 73 29 -4 7 -39 11 -87 11 l-79 0 0 -80z"/>
<path d="M2067 1893 c-17 -16 19 -33 69 -33 l53 0 3 -57 c2 -46 7 -59 21 -61
15 -3 17 6 17 77 l0 81 -78 0 c-43 0 -82 -3 -85 -7z"/>
<path d="M995 1678 c-3 -7 -4 -229 -3 -493 l3 -480 385 -3 c329 -2 390 -5 419
-18 106 -51 228 -9 282 97 35 70 20 180 -34 237 -50 54 -146 80 -219 59 l-28
-7 0 177 0 178 -133 133 -132 132 -268 0 c-205 0 -269 -3 -272 -12z m512 -148
c1 -63 2 -121 3 -127 0 -10 32 -13 125 -13 l125 0 0 -173 c0 -165 -1 -175 -21
-193 -53 -47 -77 -176 -44 -234 29 -51 39 -50 -325 -50 l-340 0 0 455 0 455
238 -2 237 -3 2 -115z m138 -10 l90 -91 -95 3 -95 3 -2 88 c-1 48 2 87 6 87 3
0 47 -41 96 -90z m294 -480 c70 -20 121 -90 121 -166 0 -118 -119 -204 -227
-163 -34 13 -80 55 -99 91 -31 59 -11 150 42 199 48 44 102 57 163 39z"/>
<path d="M1122 1413 c2 -14 15 -19 61 -21 52 -3 57 -1 57 18 0 18 -6 20 -61
20 -52 0 -60 -2 -57 -17z"/>
<path d="M1122 1283 c3 -16 18 -18 168 -18 140 0 165 2 165 15 0 13 -27 15
-168 18 -157 2 -168 1 -165 -15z"/>
<path d="M1164 1117 c-2 -7 -3 -62 -2 -123 l3 -109 145 0 145 0 0 120 0 120
-143 3 c-112 2 -144 0 -148 -11z m256 -112 l0 -85 -110 0 -110 0 0 85 0 85
110 0 110 0 0 -85z"/>
<path d="M1876 948 c-3 -7 -6 -22 -8 -33 -2 -13 -12 -21 -31 -23 -37 -4 -33
-36 5 -40 21 -3 27 -9 30 -30 4 -36 32 -36 36 1 3 21 9 27 28 27 14 0 27 7 31
15 7 20 3 24 -28 28 -17 3 -25 12 -29 32 -5 30 -27 45 -34 23z"/>
<path d="M678 1515 c-75 -50 -86 -63 -64 -71 10 -4 36 7 64 25 l47 30 5 -137
c4 -113 8 -137 20 -137 12 0 16 24 20 137 l5 138 45 -30 c47 -31 80 -39 80
-17 0 11 -133 107 -149 107 -3 0 -36 -20 -73 -45z"/>
<path d="M560 661 c0 -76 1 -81 23 -85 45 -8 109 -5 128 5 32 17 11 29 -51 29
l-59 0 -3 62 c-2 50 -6 63 -20 66 -16 3 -18 -6 -18 -77z"/>
<path d="M2197 733 c-4 -3 -7 -33 -7 -65 l0 -58 -59 0 c-62 0 -81 -10 -57 -30
12 -9 124 -10 154 -1 1 1 2 37 2 81 0 60 -3 80 -13 80 -8 0 -17 -3 -20 -7z"/>
</g>
</svg>
