<?xml version="1.0" standalone="no"?>
<!DOCTYPE svg PUBLIC "-//W3C//DTD SVG 20010904//EN"
 "http://www.w3.org/TR/2001/REC-SVG-20010904/DTD/svg10.dtd">
<svg version="1.0" xmlns="http://www.w3.org/2000/svg"
 width="338.000000pt" height="352.000000pt" viewBox="0 0 338.000000 352.000000"
 preserveAspectRatio="xMidYMid meet">

<g transform="translate(0.000000,352.000000) scale(0.100000,-0.100000)"
fill="#8f8bb4" stroke="none">
<path d="M2120 2770 c0 -19 6 -20 145 -20 l145 0 0 -233 0 -233 -39 -18 c-110
-48 -110 -214 0 -262 l39 -18 0 -128 0 -128 -60 0 c-33 0 -60 -3 -61 -7 0 -12
-1 -256 0 -270 1 -9 20 -13 61 -13 l60 0 0 -87 0 -88 -40 -17 c-53 -22 -80
-68 -80 -135 0 -44 5 -58 31 -88 60 -68 157 -69 218 0 36 41 47 91 31 139 -12
39 -74 96 -102 96 -16 0 -18 11 -18 90 l0 89 63 3 62 3 0 140 0 140 -62 3 -63
3 0 128 0 128 40 16 c43 16 76 61 86 114 10 52 -30 123 -83 148 l-43 20 0 232
0 232 148 3 c123 3 147 5 147 18 0 13 -43 15 -312 18 -308 2 -313 2 -313 -18z
m382 -559 c28 -25 33 -36 33 -76 0 -40 -5 -51 -33 -76 -84 -75 -212 10 -169
114 31 72 111 90 169 38z m38 -626 l0 -105 -110 0 -110 0 0 105 0 105 110 0
110 0 0 -105z m-66 -370 c35 -17 66 -61 66 -95 0 -53 -57 -110 -110 -110 -58
0 -118 73 -105 129 9 44 57 83 108 90 5 0 23 -6 41 -14z"/>
<path d="M1190 2571 c-110 -36 -173 -120 -172 -229 0 -65 31 -132 79 -171 l35
-29 -48 -16 c-151 -51 -284 -206 -314 -365 -5 -30 -10 -170 -10 -311 0 -295
-9 -270 101 -270 l69 0 0 -170 0 -169 -82 -3 c-66 -2 -83 -6 -83 -18 0 -13
117 -15 979 -18 970 -2 1019 -1 1000 29 -3 5 -263 9 -595 9 l-589 0 0 170 0
170 69 0 c110 0 101 -25 101 276 0 157 -5 284 -11 316 -33 153 -156 297 -300
349 l-60 22 36 29 c124 103 100 304 -47 379 -44 23 -121 32 -158 20z m160 -65
c120 -79 114 -249 -10 -325 -42 -25 -136 -29 -179 -7 -42 22 -89 81 -101 127
-25 92 34 200 128 230 44 14 121 2 162 -25z m15 -408 c100 -25 206 -106 262
-199 56 -93 63 -143 63 -427 l0 -253 -62 3 -63 3 -5 125 c-4 102 -8 125 -20
125 -13 0 -15 -43 -18 -318 l-2 -318 -128 3 -127 3 -3 188 c-2 156 -5 187 -17
187 -12 0 -15 -31 -17 -187 l-3 -188 -127 -3 -128 -3 -2 318 c-3 275 -5 318
-18 318 -12 0 -15 -22 -18 -127 l-3 -128 -64 0 -65 0 0 253 c0 178 4 267 14
302 66 247 302 385 551 323z"/>
<path d="M1209 1878 c-1 -2 -3 -20 -4 -40 l-2 -38 44 0 43 0 0 40 0 40 -40 0
c-22 0 -41 -1 -41 -2z"/>
<path d="M1202 1670 l-3 -40 46 0 45 0 0 40 0 40 -43 0 -43 0 -2 -40z"/>
<path d="M1202 1500 l-3 -40 46 0 45 0 0 40 0 40 -43 0 -43 0 -2 -40z"/>
</g>
</svg>
