<?xml version="1.0" standalone="no"?>
<!DOCTYPE svg PUBLIC "-//W3C//DTD SVG 20010904//EN"
 "http://www.w3.org/TR/2001/REC-SVG-20010904/DTD/svg10.dtd">
<svg version="1.0" xmlns="http://www.w3.org/2000/svg"
 width="612.000000pt" height="408.000000pt" viewBox="0 0 612.000000 408.000000"
 preserveAspectRatio="xMidYMid meet">

<g transform="translate(0.000000,408.000000) scale(0.100000,-0.100000)"
fill="#8f8bb4" stroke="none">
<path d="M1340 3563 l-31 -28 1 -1103 c0 -1071 0 -1103 -19 -1130 -10 -15 -83
-141 -160 -280 -137 -245 -142 -255 -139 -305 3 -43 7 -53 28 -64 35 -18 3916
-19 3955 -1 22 10 25 17 25 63 0 45 -16 89 -120 320 -66 148 -124 272 -130
275 -7 4 -10 360 -10 1104 0 794 -3 1103 -11 1119 -6 12 -21 30 -33 39 -20 16
-123 18 -1673 18 l-1653 0 -30 -27z m3335 7 c57 -22 55 16 55 -1150 0 -588 -3
-1076 -6 -1085 -5 -13 -32 -15 -174 -15 -160 0 -169 1 -175 20 -6 20 -15 20
-1361 20 -1353 0 -1354 0 -1354 -20 0 -20 -5 -20 -167 -18 l-168 3 -3 1098 -2
1098 29 30 29 29 1636 0 c1058 0 1644 -4 1661 -10z m-315 -2229 c0 -5 3 -16 6
-25 6 -15 -117 -16 -1345 -16 -1303 0 -1351 1 -1351 18 0 10 3 22 7 25 10 11
2683 8 2683 -2z m-2708 -41 c5 -15 2728 -27 2728 -12 0 9 50 12 183 12 l183 0
122 -270 c67 -149 119 -277 116 -285 -5 -13 -117 -15 -858 -15 l-851 0 -10
-22 c-10 -23 -10 -23 -265 -23 -255 0 -255 0 -265 23 l-10 22 -851 0 c-692 0
-854 2 -862 13 -13 16 -13 17 165 332 68 121 129 223 136 227 18 12 335 10
339 -2z m1075 -610 c13 -19 26 -20 273 -20 248 0 259 1 273 20 14 20 27 20
866 23 843 2 852 2 849 -18 -7 -48 74 -46 -2008 -39 -1299 4 -1959 10 -1967
16 -7 6 -13 18 -13 27 0 15 71 16 857 13 840 -2 857 -3 870 -22z"/>
<path d="M1437 3443 c-4 -3 -7 -453 -7 -999 0 -865 2 -993 15 -998 23 -8 3149
-7 3163 2 10 7 12 214 10 1003 l-3 994 -1586 3 c-872 1 -1589 -1 -1592 -5z
m3163 -998 l0 -985 -1575 0 -1575 0 0 985 0 985 1575 0 1575 0 0 -985z"/>
<path d="M1729 1272 l-97 -3 -47 -124 c-27 -69 -45 -129 -41 -133 4 -4 100 -8
212 -10 200 -3 204 -3 204 17 0 12 5 21 11 21 6 0 8 -9 4 -20 -6 -20 -3 -21
97 -20 57 0 154 -2 215 -6 112 -7 113 -7 122 17 l10 24 0 -24 1 -24 308 7
c169 3 443 6 609 6 277 1 302 2 306 18 4 16 5 16 6 0 1 -16 13 -18 95 -18 82
0 95 2 99 18 4 16 5 16 6 0 1 -16 13 -18 95 -18 82 0 95 2 99 18 4 16 5 16 6
0 1 -16 13 -18 95 -18 82 0 95 2 99 18 4 16 5 16 6 0 1 -16 13 -18 110 -18 61
0 112 4 116 9 9 16 -68 242 -86 251 -15 8 -2427 19 -2660 12z m-59 -38 c-6
-14 -10 -27 -10 -30 0 -2 38 -4 85 -4 50 0 85 4 85 10 0 6 5 10 11 10 5 0 8
-4 4 -9 -3 -5 7 -11 22 -13 17 -2 28 -9 28 -18 0 -12 -20 -15 -120 -15 -66 0
-126 -4 -132 -8 -7 -5 -13 -17 -13 -28 0 -18 8 -19 160 -19 121 0 160 3 161
13 0 10 2 10 6 0 2 -7 16 -13 29 -13 17 0 24 -6 24 -20 0 -18 -6 -19 -203 -13
l-204 6 -11 -31 c-10 -30 -32 -44 -32 -22 0 15 72 203 83 218 5 6 16 12 23 12
10 0 11 -6 4 -26z m2721 6 c15 -25 71 -211 65 -217 -3 -4 -48 -7 -98 -7 -86
-1 -93 0 -93 19 0 18 8 20 78 23 54 2 77 7 77 15 0 26 -25 37 -82 37 -51 0
-58 2 -58 20 0 18 7 20 55 20 53 0 55 1 45 20 -10 18 -21 20 -136 20 -117 0
-126 1 -131 20 -3 11 -12 20 -19 20 -8 0 -14 -9 -14 -20 0 -18 -7 -20 -75 -20
-68 0 -75 2 -75 20 0 13 -7 20 -20 20 -13 0 -20 -7 -20 -20 0 -18 -7 -20 -75
-20 -68 0 -75 2 -75 20 0 13 -7 20 -20 20 -13 0 -20 -7 -20 -20 0 -18 -7 -20
-71 -20 -62 0 -71 2 -76 20 -7 26 -33 26 -40 0 -5 -17 -14 -20 -67 -20 -60 0
-89 9 -86 26 0 5 -6 10 -14 12 -9 2 -16 -3 -16 -12 0 -13 -13 -16 -75 -16 -60
0 -75 3 -75 15 0 8 -9 15 -20 15 -11 0 -20 -7 -20 -15 0 -12 -15 -15 -75 -15
-60 0 -75 3 -75 15 0 8 -9 15 -20 15 -11 0 -20 -7 -20 -15 0 -12 -15 -15 -75
-15 -60 0 -75 3 -75 15 0 8 -9 15 -20 15 -11 0 -20 -7 -20 -15 0 -12 -14 -15
-68 -15 -56 0 -69 3 -80 20 -13 21 -42 17 -42 -7 0 -11 -15 -13 -72 -11 -55 2
-73 7 -73 17 0 23 -23 24 -35 2 -9 -18 -20 -21 -80 -21 -54 0 -70 3 -70 14 0
23 -22 31 -35 12 -9 -12 -31 -18 -80 -20 -60 -4 -68 -2 -72 15 -6 23 -41 25
-49 4 -5 -11 -23 -15 -75 -15 -57 0 -67 3 -63 15 5 11 -1 15 -20 15 -16 0 -26
-6 -26 -15 0 -12 -15 -15 -71 -15 -61 0 -70 2 -65 16 3 9 6 20 6 26 0 7 415 9
1346 6 1163 -3 1347 -6 1355 -18z m-2339 -50 c11 0 18 -5 16 -12 -3 -8 -28
-14 -66 -16 -55 -3 -62 -1 -62 15 0 15 9 19 38 21 20 2 39 8 42 15 2 7 6 5 8
-5 2 -10 13 -18 24 -18z m203 0 c26 0 33 -3 29 -15 -5 -12 -25 -15 -89 -15
-64 0 -84 3 -89 15 -4 12 5 15 49 15 45 0 55 3 56 18 1 16 2 16 6 0 3 -13 14
-18 38 -18z m186 0 c19 0 29 -5 29 -15 0 -12 -15 -15 -74 -15 -56 0 -75 4 -80
15 -4 12 4 15 39 15 36 0 45 4 46 18 1 16 2 16 6 0 3 -12 14 -18 34 -18z m190
0 c19 0 29 -5 29 -15 0 -13 -12 -15 -72 -13 -46 2 -73 7 -76 16 -2 8 9 12 37
12 32 0 41 4 42 18 1 16 2 16 6 0 3 -12 14 -18 34 -18z m353 -2 c6 -4 21 -8
34 -8 12 0 22 -4 22 -10 0 -13 -135 -18 -148 -5 -9 9 19 25 46 25 14 0 22 6
23 18 0 13 2 14 6 2 3 -8 11 -18 17 -22z m216 -8 c16 0 30 -4 30 -10 0 -6 -32
-10 -75 -10 -43 0 -75 4 -75 10 0 6 16 10 35 10 29 0 35 4 36 23 l0 22 9 -22
c7 -17 18 -23 40 -23z m186 0 c19 0 34 -4 34 -10 0 -6 -32 -10 -75 -10 -43 0
-75 4 -75 10 0 6 16 10 35 10 29 0 35 4 36 23 l2 22 4 -22 c4 -19 11 -23 39
-23z m190 0 c19 0 34 -4 34 -10 0 -6 -32 -10 -75 -10 -43 0 -75 4 -75 10 0 6
16 10 35 10 29 0 35 4 36 23 l2 22 4 -22 c4 -19 11 -23 39 -23z m-786 20 c0
-5 14 -10 30 -10 43 0 39 -27 -4 -32 -57 -6 -116 3 -116 18 0 9 12 14 35 14
19 0 35 5 35 10 0 6 5 10 10 10 6 0 10 -4 10 -10z m1161 -20 c21 0 39 -4 39
-10 0 -6 -32 -10 -76 -10 -47 0 -73 4 -69 10 3 6 17 10 31 10 16 0 24 6 25 18
1 16 2 16 6 0 3 -13 15 -18 44 -18z m-2022 -47 c1 -10 -34 -13 -144 -13 -124
0 -144 2 -139 15 5 12 30 15 135 15 116 0 129 2 130 18 0 14 2 14 9 -3 5 -11
9 -26 9 -32z m1869 35 c-3 -8 -29 -14 -71 -16 -55 -2 -67 0 -67 13 0 12 14 15
71 15 52 0 70 -3 67 -12z m382 2 c0 -6 -32 -10 -76 -10 -47 0 -73 4 -69 10 3
6 37 10 76 10 39 0 69 -4 69 -10z m185 0 c4 -6 -20 -10 -64 -10 -41 0 -71 4
-71 10 0 6 28 10 64 10 36 0 68 -4 71 -10z m-2250 -30 c8 0 15 -4 15 -10 0 -6
-32 -10 -75 -10 -56 0 -75 3 -75 13 0 9 15 14 48 16 26 1 49 6 51 13 2 6 7 4
13 -6 5 -9 16 -16 23 -16z m389 14 c15 -40 9 -44 -69 -44 -69 0 -75 2 -75 21
0 19 4 20 55 14 45 -6 56 -4 61 9 8 20 20 21 28 0z m199 -15 c25 -17 -9 -29
-79 -29 -59 0 -74 3 -74 15 0 12 13 15 60 15 48 0 62 4 67 17 5 14 8 14 11 2
3 -7 9 -17 15 -20z m188 1 c5 0 9 -7 9 -15 0 -12 -16 -15 -80 -15 -64 0 -80 3
-80 15 0 12 13 15 59 15 46 0 60 4 66 18 8 16 8 16 12 0 3 -10 9 -18 14 -18z
m199 -17 c0 -9 -22 -13 -80 -13 -66 0 -78 2 -74 15 5 11 21 15 60 15 40 0 56
4 60 15 6 14 8 13 20 -2 7 -10 14 -24 14 -30z m565 17 c9 0 12 -6 9 -15 -5
-11 -24 -15 -80 -15 -59 0 -74 3 -74 15 0 12 13 15 55 15 44 0 57 4 63 18 6
16 7 16 10 0 2 -10 10 -18 17 -18z m-1335 -6 c0 -11 -18 -14 -75 -14 -43 0
-75 4 -75 10 0 6 27 10 60 10 33 0 60 4 60 10 0 5 7 7 15 4 8 -4 15 -12 15
-20z m970 -9 c0 -12 -17 -15 -85 -15 -69 0 -85 3 -85 15 0 12 14 15 65 15 38
0 65 4 65 10 0 7 6 7 20 0 11 -6 20 -17 20 -25z m160 25 c0 -5 6 -10 13 -10
22 0 16 -28 -7 -33 -12 -3 -39 -4 -61 -2 -22 1 -48 3 -57 4 -10 0 -18 8 -18
16 0 12 13 15 55 15 30 0 55 5 55 10 0 6 5 10 10 10 6 0 10 -4 10 -10z m380 0
c0 -5 7 -10 15 -10 8 0 15 -7 15 -15 0 -12 -16 -15 -80 -15 -64 0 -80 3 -80
15 0 12 13 15 55 15 30 0 55 5 55 10 0 6 5 10 10 10 6 0 10 -4 10 -10z m206
-10 c8 0 14 -7 14 -15 0 -12 -15 -15 -74 -15 -56 0 -75 4 -80 15 -4 12 5 15
49 15 31 0 57 5 61 12 6 9 9 9 12 0 2 -7 10 -12 18 -12z m188 14 c9 -3 16 -15
16 -25 0 -17 -8 -19 -75 -19 -60 0 -75 3 -75 15 0 12 13 15 55 15 30 0 55 5
55 10 0 12 3 12 24 4z m-2039 -54 c16 0 25 -6 25 -15 0 -12 -15 -15 -75 -15
-66 0 -75 2 -75 18 0 15 6 18 29 14 17 -2 34 2 42 11 12 13 15 13 22 1 4 -8
19 -14 32 -14z m191 0 c24 0 34 -5 34 -15 0 -11 -12 -15 -42 -16 -24 -1 -60
-2 -80 -3 -31 -2 -38 2 -38 16 0 14 8 18 34 18 19 0 38 5 42 12 6 9 9 9 12 0
2 -7 19 -12 38 -12z m579 -2 c19 -2 31 -9 33 -21 3 -16 -4 -18 -75 -15 -65 3
-78 6 -81 21 -3 14 4 17 37 17 26 0 41 5 41 13 0 9 2 9 8 0 4 -6 21 -13 37
-15z m200 -8 c24 0 35 -5 35 -15 0 -12 -16 -15 -80 -15 -64 0 -80 3 -80 15 0
8 6 15 13 16 32 2 52 9 56 20 2 8 7 6 13 -5 6 -10 22 -16 43 -16z m579 7 c44
-1 48 -22 5 -31 -58 -11 -119 -7 -119 8 0 8 14 17 30 21 17 4 30 12 30 18 0 8
3 7 9 -2 5 -7 25 -14 45 -14z m-1125 -3 c2 -2 1 -10 -2 -19 -5 -12 -23 -15
-81 -15 -65 0 -74 2 -79 19 -4 17 1 20 37 23 41 3 118 -2 125 -8z m191 -15 c0
-17 -8 -19 -79 -19 -70 0 -79 2 -84 19 -4 17 1 20 42 23 83 5 121 -2 121 -23z
m546 11 c24 0 34 -5 34 -15 0 -13 -13 -15 -77 -13 -50 2 -78 7 -81 16 -2 8 8
12 32 12 19 0 38 5 42 12 6 9 9 9 12 0 2 -7 19 -12 38 -12z m234 -16 c0 -12
-15 -14 -77 -12 -48 2 -78 7 -80 15 -5 13 48 20 115 14 28 -2 42 -8 42 -17z
m380 11 c0 -15 -123 -26 -144 -12 -21 13 12 23 79 24 48 1 65 -2 65 -12z m440
0 c0 -22 -385 -23 -393 -1 -5 13 24 15 194 16 171 0 199 -2 199 -15z m-2328
-29 c17 -3 43 -6 58 -6 23 0 27 -4 23 -20 -5 -18 -14 -20 -84 -20 -78 0 -79 0
-79 25 0 15 6 25 14 25 8 0 17 8 21 18 7 15 9 15 12 1 2 -9 18 -19 35 -23z
m549 -6 c144 0 189 3 189 13 0 9 2 9 8 0 4 -6 42 -13 90 -15 73 -4 85 -2 97
14 12 18 13 18 18 -2 5 -19 10 -20 89 -14 45 4 86 12 90 18 6 8 8 7 8 -1 0
-10 25 -13 89 -13 84 0 89 -1 84 -20 -5 -20 -14 -20 -479 -20 -415 0 -473 2
-468 15 4 8 -1 17 -9 21 -10 3 -13 12 -9 22 6 16 7 15 10 0 3 -16 20 -18 193
-18z m1396 8 c16 -2 18 -5 9 -25 -10 -21 -18 -23 -83 -23 -66 0 -73 2 -73 20
0 17 7 20 45 20 25 0 50 6 57 14 7 8 16 10 19 4 3 -5 15 -10 26 -10z m-2161 3
c101 -6 101 -6 93 -30 l-9 -23 -168 7 c-92 4 -169 9 -170 10 -2 2 -1 13 3 24
6 19 14 21 78 20 40 -1 118 -4 173 -8z m466 -11 c71 0 78 -2 78 -20 0 -19 -7
-20 -105 -20 -98 0 -105 1 -105 20 0 11 7 20 15 20 8 0 15 5 15 12 0 9 3 9 12
0 7 -7 43 -12 90 -12z m1308 -24 c0 -14 -16 -16 -105 -16 -98 0 -105 1 -105
20 0 18 7 20 84 20 47 0 88 5 91 10 8 13 35 -13 35 -34z m198 5 c-3 -13 -19
-17 -79 -19 -69 -3 -77 -1 -82 17 -4 18 1 20 62 23 83 4 103 0 99 -21z m394
23 c3 -3 3 -14 1 -25 -5 -18 -13 -20 -81 -17 -67 3 -76 5 -83 26 -8 22 -7 22
75 22 45 0 85 -3 88 -6z"/>
<path d="M2446 958 c-19 -60 -33 -174 -24 -185 8 -11 126 -13 582 -11 l571 3
-2 88 c0 48 -4 94 -7 102 -5 13 -81 15 -561 15 -436 0 -556 -3 -559 -12z
m1105 -10 c3 -2 9 -40 12 -85 l5 -83 -546 -1 c-536 -1 -583 -1 -591 7 -3 3 15
118 25 154 3 13 71 15 546 13 298 -2 545 -4 549 -5z"/>
</g>
</svg>
